<?xml version="1.0" encoding="utf-8"?>
<!-- Generator: Adobe Illustrator 24.0.2, SVG Export Plug-In . SVG Version: 6.00 Build 0)  -->
<svg version="1.1" id="圖層_1" xmlns="http://www.w3.org/2000/svg" xmlns:xlink="http://www.w3.org/1999/xlink" x="0px" y="0px"
	 viewBox="0 0 1040 903.2" style="enable-background:new 0 0 1040 903.2;" xml:space="preserve">
<style type="text/css">
	.st0{fill:#1C6611;}
	.st1{fill:#FFFFFF;}
	.st2{fill:#02A437;}
	.st3{fill:#027E2A;}
	.st4{fill:none;}
	.st5{fill:none;stroke:#FFFFFF;stroke-linecap:round;stroke-dasharray:2,2;}
	.st6{clip-path:url(#SVGID_2_);}
	.st7{fill:#FFC107;}
	.st8{clip-path:url(#SVGID_4_);}
	.st9{clip-path:url(#SVGID_6_);}
	.st10{clip-path:url(#SVGID_8_);}
	.st11{clip-path:url(#SVGID_10_);}
</style>
<path class="st0" d="M0,257h1040v642H0V257z"/>
<path class="st1" d="M0,3.2h1040v258H0V3.2z"/>
<path class="st2" d="M89.4,770.4H289c21.7,0,39.3,20.8,39.3,46.4l0,0c0,25.6-17.6,46.4-39.3,46.4H89.4c-21.7,0-39.3-20.8-39.3-46.4
	l0,0C50,791.2,67.6,770.4,89.4,770.4z"/>
<path class="st1" d="M90.9,819.2c2.5-1.4,4.8-3.2,6.8-5v4.4h4.2V814c2,2,4.4,3.8,7,5.2H90.9z M101.8,829.3v-2h5.7v2H101.8z
	 M92.6,827.3h5.2v2h-5.2V827.3z M97.8,824.4h-5.2v-2h5.2V824.4z M107.4,824.4h-5.7v-2h5.7V824.4z M97.7,809.2h-4.3l1.6-0.7
	c-0.4-1.1-1.2-2.6-2.1-3.8c1.6-0.1,3.2-0.1,4.8-0.3V809.2z M105.8,809.2h-3.9v-5c1.7-0.1,3.3-0.3,4.9-0.6c-0.5,1.6-1.5,3.7-2.2,5.2
	L105.8,809.2z M115.8,812.8v-3.6h-7.1c0.9-1.3,1.9-2.9,2.8-4.5l-4.4-1.1c2.1-0.3,4.2-0.6,6-1l-2.7-3.2c-5.8,1.2-15.8,2-24.3,2.2
	c0.4,0.9,0.8,2.4,0.9,3.3c1.1,0,2.3,0,3.5-0.1l-1.7,0.6c0.8,1.1,1.6,2.5,2.1,3.7h-6.9v3.6h9.6c-2.9,2.3-6.8,4.3-10.5,5.4
	c0.9,0.8,2,2.4,2.6,3.4c0.9-0.3,1.9-0.7,2.8-1.1v13.4h4.1v-1.1h14.8v1h4.2v-13c0.8,0.3,1.6,0.7,2.5,0.9c0.6-1.1,1.9-2.9,2.8-3.7
	c-3.9-1-8-2.8-11.1-5H115.8z M146,815.5v11.3h-5v-11.3H146z M137.1,833.4h3.9v-2.5h5v1.9h4.2v-21.4h-13.1V833.4z M143.8,802.1v-2.9
	h-4.2v2.9h-8.3v-2.9h-4.2v2.9h-7.4v4.1h7.4v2h-3.2c0,1.6-0.1,3.1-0.1,4.6h-4.4v4.1h4.2c-0.5,5.7-1.6,10.6-5.1,13.9
	c1,0.7,2.3,2.1,2.9,3.2c4.2-4.1,5.7-10.1,6.3-17.1h3.5c-0.2,8.5-0.6,11.6-1.1,12.4c-0.3,0.5-0.6,0.6-1.1,0.6c-0.6,0-1.6,0-2.7-0.1
	c0.6,1.1,1,2.8,1,4c1.5,0,2.9,0,3.7-0.2c1-0.2,1.7-0.6,2.5-1.6c1-1.4,1.3-5.8,1.6-17.5c0-0.5,0.1-1.7,0.1-1.7h-7.3
	c0-1.1,0.1-2.2,0.1-3.4h3.3v-3.2h8.3v3.2h4.2v-3.2h7.5v-4.1H143.8z M188,814.4c-0.5-2.7-2.1-7-3.7-10.2l-3.5,1.1
	c1.5,3.4,3,7.8,3.4,10.5L188,814.4z M179.9,799.5h-4v18c0,0.5-0.2,0.6-0.6,0.6c-0.5,0-2,0-3.4,0c0.6,1,1.2,2.8,1.4,3.9
	c2.3,0,3.8-0.1,5.1-0.8c1.2-0.6,1.6-1.7,1.6-3.6V799.5z M171.4,804.5c-0.6,3.7-1.9,7.5-3.8,9.8c1,0.5,2.6,1.4,3.5,2.1
	c1.9-2.6,3.4-6.8,4.2-11.2L171.4,804.5z M155.9,806.9c0,3.3-0.5,7-1.6,9.2l2.9,1.4c1.3-2.6,1.8-6.6,1.7-10.1L155.9,806.9z
	 M168.8,826.3c-0.9-1-4-5-5.4-6.6c0.3-2.1,0.4-4.2,0.4-6.2l2,1c1.1-1.9,2.5-4.9,3.8-7.5l-3.7-1.6c-0.4,1.8-1.2,4.2-2.1,6.2v-12h-3.9
	V812c0,6.3-0.6,13.2-5.6,18.1c0.9,0.7,2.3,2.2,2.9,3.2c2.7-2.6,4.3-5.7,5.3-9.1c1.3,1.7,2.6,3.7,3.4,5.1L168.8,826.3z M182.4,816.5
	c-2.2,7.6-6.9,11.6-14.5,13.6c1,1,2,2.7,2.5,4c8.5-2.9,13.5-7.6,16-16.4L182.4,816.5z M209.6,827.7h-6.2v-2.4h6.2V827.7z M221,817.1
	h-28.5v16.7h4.1v-13h20.1v8.3c0,0.4-0.1,0.6-0.7,0.6c-0.4,0-1.5,0-2.7,0v-7.2h-13.6v10h3.7v-1.7h9.2c0.4,1,0.7,2.1,0.8,3
	c2.6,0,4.4,0,5.8-0.7c1.4-0.7,1.8-1.9,1.8-3.9V817.1z M212,812.5h-11.1v-2.3H212V812.5z M196.9,807.4v8.2h19.4v-8.2H196.9z
	 M208.5,802.2v-3.1h-4.3v3.1h-13.2v3.7h31.1v-3.7H208.5z M257.9,800.1H243v2.9h14.8V800.1z M241.7,800.1h-14.6v2.9h14.6V800.1z
	 M236.9,809.2c-0.6-0.9-1.9-2-3-2.7l-2,1.8c1.1,0.8,2.3,2.1,2.9,2.9L236.9,809.2z M236.6,818.8v1.6h-4.4c0-0.6,0.1-1.1,0.1-1.6
	H236.6z M236.6,814.8v1.3h-4.4v-1.3H236.6z M244.8,816.1h-4.5v-1.3h4.5V816.1z M244.8,820.4h-4.5v-1.6h4.5V820.4z M252.9,818.8v1.6
	h-4.3v-1.6H252.9z M250.3,830.2c-1.3,0-1.5-0.2-1.5-1.2v-0.9c3.1-0.5,6.5-1.3,9.3-2.1l-2.5-2.5c-1.6,0.7-4.2,1.3-6.8,1.9v-2.2h8.1
	v-7h-8.3v-1.3h9.3v-3h-13.7V811h3.1v-4.5h2.2l-1.9,1.7c1.2,0.9,2.5,2.1,3.2,3l2-2c-0.6-0.9-2-2-3.1-2.7h3.7v4.4h3.8v-6.8h-13.5v5.7
	h-2.4v-5.7h-13.3v6.9h3.6v-4.5h6v4.4h3.1v0.9h-12.3v6.2c0,3.9-0.2,9.3-3.1,13.1c0.8,0.5,2.5,2,3.1,2.8c2.2-2.9,3.2-7,3.6-10.8h1.4
	v6.7l-2.6,0.2l0.2,3.2c3.6-0.3,8.4-0.7,13-1.1v-3c-2.3,0.2-4.6,0.4-6.8,0.5v-2h6.5v-2.9h-6.5v-1.6h7.7v6c0,3.3,1,4.3,4.9,4.3h4.9
	c3,0,3.9-1,4.3-4.9c-1-0.2-2.5-0.8-3.3-1.3c-0.1,2.6-0.4,3.1-1.4,3.1H250.3z M269.8,807.4h4.3v-2.2h7.5v1.7h4.1
	c-6.2,1-14.9,1.6-22.7,1.7c0.4,1,0.9,2.7,0.9,3.8c9.3-0.1,20.4-0.7,28.1-2.6l-3.3-3.4c-0.9,0.2-1.7,0.4-2.7,0.5v-1.7h7.8v-3.9h-7.8
	v-2.2h-4.3v2.2h-7.5v-2.2h-4.3v2.2H262v3.9h7.8V807.4z M287.6,819.4c1.3-1.7,3-4.3,4.4-6.7l-4.3-1.6c-0.7,2.1-2.3,5-3.5,6.9
	L287.6,819.4z M271,818c-0.5-1.6-1.8-3.7-3.1-5.3l-3.5,1.5c1.2,1.6,2.4,3.9,2.8,5.4L271,818z M293.6,824.2v-3.9h-13.7v-2.5h-3.1
	l3.2-1.1c-0.2-1.4-1.1-3.3-2-4.7l-3.7,1.3c0.8,1.4,1.6,3.3,1.8,4.6h-0.6v2.5H262v3.9h9.9c-3,2.1-7,3.9-11,4.9
	c0.9,0.9,2.2,2.7,2.9,3.9c4.2-1.4,8.4-3.8,11.7-6.9v7.6h4.4v-7.7c3.1,3.1,7.4,5.5,11.6,6.8c0.6-1.1,1.9-3,2.9-3.9
	c-4.1-0.9-8.3-2.6-11.3-4.8H293.6z"/>
<path class="st2" d="M429.8,771.5h189.9c20.7,0,37.4,19.7,37.4,44.1l0,0c0,24.4-16.7,44.1-37.4,44.1H429.8
	c-20.7,0-37.4-19.7-37.4-44.1l0,0C392.3,791.3,409.1,771.5,429.8,771.5z"/>
<path class="st1" d="M466.6,800.4h-32.2v4.3h32.2V800.4z M441,822.5c1,2.1,2,4.9,2.3,6.6l4.3-1.4c-0.3-1.8-1.5-4.5-2.6-6.5
	L441,822.5z M442.6,811.8h15.9v5.1h-15.9V811.8z M456.2,821.1h6.9v-13.4h-24.8v13.4h17.4c-0.6,2.1-1.8,4.9-2.8,6.9l4,1.2
	c1.1-1.8,2.5-4.4,3.8-7.1L456.2,821.1z M467.2,829.2h-33.6v4.2h33.6V829.2z M485.8,800.4h-14.9v4.2h14.9V800.4z M480.8,814.6h-5.5
	v-3.7h5.5V814.6z M484.8,807.3h-13.2v10.9h13.2V807.3z M477.1,825.9c-0.1-1.9-0.7-4.7-1.5-6.9l-3.5,0.9c0.7,2.2,1.2,5.1,1.2,7
	L477.1,825.9z M485.8,825.4l-3.4,0.7c0.5-1.7,1.1-4.1,1.7-6.4l-4.1-0.8c-0.3,2.1-0.8,5-1.3,6.9l2.6,0.5c-4.2,0.9-8.3,1.8-11.1,2.3
	l0.9,4.3c4.2-1,9.9-2.3,15.2-3.6L485.8,825.4z M498.9,816.6c-0.9,2.6-2.1,4.8-3.6,6.7c-1.5-2-2.8-4.3-3.6-6.7H498.9z M501.4,812.3
	l-0.7,0.2h-3v-4.7h7.1v-4.2h-7.1v-5.1h-4.3v5.1h-7.2v4.2h7.2v4.7h-6.8v4.1h4l-3.1,0.9c1.2,3.4,2.8,6.4,4.7,9
	c-2.4,1.9-5.2,3.3-8.3,4.3c0.9,0.8,2.2,2.8,2.8,3.9c3.1-1.1,5.9-2.7,8.4-4.9c2.2,2.1,4.7,3.7,7.7,4.9c0.6-1.2,1.9-3,2.9-4
	c-2.8-1-5.3-2.4-7.4-4.2c2.7-3.4,4.8-7.7,6-13L501.4,812.3z M528.4,828.4h-6.5v-2.5h6.5V828.4z M540.4,817.2h-30v17.5h4.3v-13.7
	h21.2v8.7c0,0.5-0.1,0.6-0.7,0.6c-0.4,0-1.6,0-2.8,0v-7.6H518v10.5h3.9v-1.8h9.7c0.4,1,0.7,2.2,0.9,3.1c2.7,0,4.7,0,6.1-0.7
	c1.5-0.7,1.9-1.9,1.9-4.1V817.2z M530.9,812.5h-11.7v-2.4h11.7V812.5z M515,807v8.6h20.4V807H515z M527.2,801.6v-3.3h-4.5v3.3h-13.8
	v3.9h32.7v-3.9H527.2z M579.1,799.4h-15.6v3h15.6V799.4z M562.1,799.4h-15.3v3h15.3V799.4z M557.1,809c-0.6-0.9-2-2.1-3.2-2.9
	l-2.1,1.9c1.2,0.9,2.5,2.2,3.1,3.1L557.1,809z M556.7,819v1.7H552c0-0.6,0.1-1.1,0.1-1.7H556.7z M556.7,814.8v1.4h-4.6v-1.4H556.7z
	 M565.4,816.2h-4.7v-1.4h4.7V816.2z M565.4,820.7h-4.7V819h4.7V820.7z M573.9,819v1.7h-4.5V819H573.9z M571.2,831
	c-1.3,0-1.6-0.2-1.6-1.2v-1c3.2-0.5,6.8-1.3,9.7-2.2l-2.6-2.6c-1.7,0.7-4.5,1.4-7.1,1.9v-2.3h8.5v-7.4h-8.7v-1.4h9.7v-3.1h-14.4
	v-0.9h3.3v-4.7h2.4l-2,1.8c1.2,0.9,2.7,2.2,3.3,3.2l2.1-2.1c-0.7-0.9-2.1-2.1-3.3-2.9h3.9v4.6h4v-7.1h-14.2v6h-2.5v-6h-14v7.2h3.8
	v-4.7h6.3v4.6h3.2v0.9H548v6.5c0,4.1-0.3,9.7-3.2,13.8c0.9,0.5,2.6,2.1,3.3,2.9c2.3-3.1,3.4-7.4,3.8-11.3h1.5v7.1l-2.7,0.2l0.3,3.4
	c3.7-0.4,8.8-0.8,13.7-1.2v-3.2c-2.4,0.2-4.8,0.4-7.1,0.5v-2.1h6.9v-3h-6.9v-1.7h8.1v6.3c0,3.5,1,4.5,5.1,4.5h5.1
	c3.1,0,4.1-1.1,4.5-5.1c-1-0.2-2.7-0.8-3.5-1.4c-0.1,2.7-0.4,3.3-1.4,3.3H571.2z M591.6,807.1h4.5v-2.3h7.9v1.8h4.3
	c-6.5,1.1-15.7,1.6-23.9,1.8c0.4,1,0.9,2.8,1,4c9.8-0.1,21.4-0.8,29.6-2.7l-3.5-3.6c-0.9,0.2-1.8,0.4-2.9,0.5v-1.8h8.2v-4.1h-8.2
	v-2.3H604v2.3h-7.9v-2.3h-4.5v2.3h-8.2v4.1h8.2V807.1z M610.3,819.7c1.3-1.8,3.1-4.5,4.7-7l-4.6-1.7c-0.8,2.3-2.4,5.3-3.7,7.2
	L610.3,819.7z M592.9,818.1c-0.5-1.6-1.9-3.9-3.2-5.6l-3.7,1.6c1.2,1.7,2.5,4.1,3,5.7L592.9,818.1z M616.7,824.7v-4.1h-14.4v-2.6
	H599l3.4-1.2c-0.3-1.4-1.2-3.4-2.1-5l-3.9,1.3c0.9,1.5,1.6,3.5,1.9,4.8h-0.6v2.6h-14.2v4.1h10.4c-3.1,2.2-7.4,4.1-11.5,5.1
	c1,1,2.4,2.8,3,4.1c4.4-1.4,8.9-4,12.3-7.2v8h4.6v-8.1c3.3,3.2,7.7,5.8,12.2,7.2c0.7-1.2,2-3.1,3-4.1c-4.3-0.9-8.8-2.8-11.9-5.1
	H616.7z"/>
<path class="st2" d="M748.9,769.3h199.7c21.7,0,39.3,20.8,39.3,46.4l0,0c0,25.6-17.6,46.4-39.3,46.4H748.9
	c-21.7,0-39.3-20.8-39.3-46.4l0,0C709.5,790,727.2,769.3,748.9,769.3z"/>
<path class="st1" d="M826.7,813.5V809h-13.8c0.4-3.4,0.4-6.8,0.4-9.8h-4.6c0,3,0,6.3-0.4,9.8h-12.8v4.5h12.1
	c-1.4,6.3-4.7,12.4-12.8,16.1c1.2,0.9,2.5,2.5,3.1,3.7c7.5-3.7,11.3-9.5,13.2-15.6c2.7,7.1,6.8,12.4,13.2,15.6
	c0.7-1.2,2-3.2,3.1-4.1c-6.6-2.8-10.9-8.6-13.2-15.7H826.7z M839.6,800.5l-0.6,0.2h-7.6v32.7h3.6v-28.8h2.7c-0.6,2.5-1.3,5.7-2,8
	c2,2.5,2.4,4.7,2.4,6.4c0,1-0.1,1.8-0.5,2.1c-0.3,0.2-0.6,0.3-1,0.3c-0.5,0-0.9,0-1.5,0c0.6,1,0.9,2.7,0.9,3.7c0.8,0,1.7,0,2.3-0.1
	c0.8-0.1,1.5-0.4,2-0.8c1.1-0.8,1.5-2.3,1.5-4.7c0-2.1-0.5-4.6-2.6-7.4c1-2.9,2.1-6.9,3.1-10L839.6,800.5z M856.8,814.6
	c-0.7,2.9-1.7,5.4-3,7.6c-1.5-2.2-2.7-4.8-3.6-7.6H856.8z M858.9,810.5l-0.7,0.1h-10.4v-5.6h14.1v-3.9l-14.1,0h-0.5h-1.9v0h-1.6
	v10.7c0,5.7-0.3,13.5-4.2,18.9c0.9,0.4,2.5,1.8,3.2,2.6c3-4.1,4.2-10,4.7-15.3c1,2.8,2.2,5.4,3.7,7.6c-1.8,1.9-3.8,3.3-6.2,4.3
	c0.8,0.9,1.9,2.5,2.4,3.6c2.5-1.2,4.6-2.7,6.5-4.6c1.8,1.8,3.9,3.3,6.4,4.5c0.6-1.1,1.8-2.8,2.7-3.7c-2.5-1-4.7-2.3-6.5-4.1
	c2.4-3.6,4-8.3,4.8-14.3L858.9,810.5z M866.4,806.8c0,3.3-0.4,7-1.6,9.1l2.6,1.6c1.4-2.5,1.8-6.6,1.8-10.3L866.4,806.8z
	 M877.2,825.7c-0.6-0.9-3.2-4.6-4.4-6.1c0.2-2.1,0.3-4.3,0.3-6.4l1.9,0.8c0.8-1.8,1.8-4.6,2.7-7.2v3.1h20v-3.2h-8.3v-1.5h6v-3.2h-6
	v-3h-4v3h-5.8v3.2h5.8v1.5h-7.8l0.1-0.4l-3.3-1.2c-0.3,1.9-1,4.4-1.5,6.4v-12.1h-3.6v12.6c0,6.3-0.4,13.1-4.5,18.3
	c0.8,0.6,2.1,2,2.7,2.9c2.2-2.7,3.5-5.8,4.3-9c1,1.5,1.9,3.1,2.4,4.3L877.2,825.7z M887.1,816.9v2.9h10.6v-2.9H894v-1.8h2.7v-2.8
	H894v-2.1h-3.5v2.1h-2.5v2.8h2.5v1.8H887.1z M877.6,820.4l9-1.1l-0.1-2.9l-2.6,0.3v-1.6h2.3v-2.8H884v-2.1h-3.5v2.1h-2.6v2.8h2.6
	v1.9c-1.3,0.1-2.5,0.3-3.5,0.3L877.6,820.4z M892.7,829.6c-0.5,0-0.6-0.1-0.6-1v-4.1h5.8V821h-20.5v3.6h4.3
	c-0.5,2.9-1.8,4.5-6.5,5.5c0.8,0.8,1.8,2.4,2.1,3.4c6-1.6,7.7-4.4,8.2-8.9h2.6v4.1c0,3.3,0.7,4.4,3.8,4.4h2.6c2.4,0,3.3-1.1,3.6-5.2
	c-1-0.3-2.6-0.8-3.3-1.5c-0.1,2.8-0.2,3.2-0.8,3.2H892.7z"/>
<path class="st3" d="M440.4,62.7H414v3.2h24.7c-1.8,4.2-4.5,10-6.8,14.5l3.3,1c2.8-5.6,6.1-13,8.2-18.1l-2.6-0.8L440.4,62.7z
	 M419.6,53.8v3.1h19.2v-3.1H419.6z M427.2,39.3c-3.4,6-10.8,13.6-18.4,18.1c0.7,0.7,1.7,1.9,2.1,2.7c7.4-4.7,14.5-11.8,18-17.4
	c4,5.9,11.7,12.9,18.5,17.2c0.6-1,1.4-2.2,2.2-2.9c-6.9-3.8-14.7-10.8-19.2-17.6H427.2z M462.4,74.4V61.6h21.8v12.8H462.4z
	 M484.3,45.9v12.4h-21.8V45.9H484.3z M459.1,42.5v38.2h3.3v-3h21.8v2.8h3.4v-38H459.1z M532.5,55.9h-12.9v-4.4h12.9V55.9z
	 M532.5,62.9h-12.9v-4.5h12.9V62.9z M532.5,69.9h-12.9v-4.5h12.9V69.9z M516.6,48.8v23.8h19V48.8h-9.1c0.4-1.3,0.8-2.8,1.2-4.4h9.4
	v-2.9h-22.2v2.9h9.2c-0.2,1.4-0.5,3-0.8,4.4H516.6z M512.1,66.5c1.2-2.5,2.6-6.5,3.7-10l-2-0.6l-0.5,0.1h-3.2l1.1-1.4
	c-0.8-0.9-2.1-2-3.4-3c2.5-2.4,5-5.7,6.8-8.8l-2-1.5l-0.7,0.2H498v3h11.8c-1.3,1.9-2.9,3.9-4.4,5.4c-1.5-1-3-1.9-4.4-2.7l-1.8,2.2
	c3.1,1.7,6.7,4.4,9,6.6H497v3h7.2v18.1c0,0.6-0.2,0.7-0.8,0.7c-0.6,0-2.6,0-4.8,0c0.4,0.9,0.9,2.3,1,3.2c3,0,5,0,6.2-0.6
	c1.3-0.5,1.6-1.5,1.6-3.3V59.1h4.6c-0.7,2.5-1.6,5-2.4,6.7L512.1,66.5z M520.9,73.5c-1.9,2-5.9,4.4-9.3,5.6c0.6,0.6,1.7,1.7,2.2,2.3
	c3.5-1.3,7.6-3.8,10-6.2L520.9,73.5z M527.7,75.4c2.7,1.7,6,4.3,7.7,6l2.6-2c-1.8-1.7-5.2-4.2-7.8-5.8L527.7,75.4z M551.1,39.6
	c-2.5,7-6.6,13.8-10.9,18.2c0.6,0.8,1.5,2.5,1.8,3.3c1.5-1.7,3-3.5,4.4-5.5v25.6h3.1V50.6c1.8-3.2,3.3-6.6,4.6-10L551.1,39.6z
	 M575.4,76.1h-16.1V65.2h16.1V76.1z M581.4,52.7v-3.3h-12.5v-10h-3.3v10h-12v3.3h12V62h-9.5v19.3h3.2v-2h16.1v1.8h3.3V62h-9.8v-9.3
	H581.4z M613.1,47h-4.8v-2.7h4.8V47z M620.7,49.3v4.4h-4.8v-4.4H620.7z M608.2,49.3h4.8v4.4h-4.8V49.3z M600.8,49.3h4.7v4.4h-4.7
	V49.3z M605.6,47H598v8.9h25.6V47h-7.8v-2.7h9.2v-2.6h-28v2.6h8.6V47z M601.9,69.7h18v2.7h-18V69.7z M601.9,65h18v2.6h-18V65z
	 M601.9,60.3h18v2.6h-18V60.3z M623.1,74.6V58.1h-24.2v16.5H623.1z M593.6,39.7c-2.1,7.1-5.6,14-9.4,18.6c0.5,0.8,1.4,2.6,1.7,3.4
	c1.5-1.8,2.8-3.9,4.1-6.1v25.7h3.1V49.5c1.3-2.9,2.5-5.9,3.4-8.9L593.6,39.7z M605.9,74.9c-2.3,1.5-6.5,3.3-10.3,4.1
	c0.6,0.6,1.4,1.7,1.8,2.3c3.9-1,8.2-2.8,10.9-4.7L605.9,74.9z M613.1,76.8c3.8,1.4,7.7,3.2,9.9,4.5l2.8-2c-2.5-1.3-6.7-3.1-10.6-4.4
	L613.1,76.8z M649.8,64.6c2.5-1.4,4.9-3.2,7.2-5.2c2.1,2,4.6,3.8,7.4,5.2H649.8z M650.7,76.3v-8.8H663v8.8H650.7z M652.6,47.3h9.6
	c-1.3,2.9-3.1,5.5-5.2,7.8c-2.1-2.2-3.7-4.6-4.9-7L652.6,47.3z M664.2,44.2l-0.6,0.1h-9.4c0.7-1.3,1.3-2.7,1.8-4l-3.2-0.9
	c-1.7,4.7-4.5,9.1-7.8,12.4v-2.5h-5.7v-9.8h-3.1v9.8h-6.6v3.2h6.2c-1.4,6.3-4.3,13.4-7.2,17.3c0.6,0.8,1.4,2.1,1.7,3
	c2.2-3,4.3-8,5.9-13.1v21.6h3.1V58.3c1.4,2,2.9,4.4,3.6,5.7l1.9-2.7c-0.8-1.1-4.3-5.5-5.5-7v-2.1h5c-0.4,0.3-0.7,0.6-1.1,1
	c0.7,0.5,2,1.7,2.6,2.3c1.5-1.4,2.9-3,4.3-4.9c1.2,2.2,2.7,4.4,4.6,6.4c-3.7,3.3-8.1,5.8-12.5,7.2c0.7,0.6,1.5,1.9,1.8,2.8
	c1.2-0.5,2.3-0.9,3.5-1.5v15.6h3v-2H663v1.8h3.1V65.3c0.7,0.3,1.4,0.6,2.1,0.8c0.4-0.9,1.4-2.2,2-2.8c-4.3-1.4-8-3.5-11-6.1
	c3-3.3,5.5-7.3,7.1-12L664.2,44.2z M693.3,52.8c1.8,0,3.3-1.3,3.3-3.4c0-2.1-1.6-3.4-3.3-3.4c-1.8,0-3.3,1.3-3.3,3.4
	C690,51.5,691.6,52.8,693.3,52.8z M693.3,75.3c1.8,0,3.3-1.4,3.3-3.4c0-2.1-1.6-3.5-3.3-3.5c-1.8,0-3.3,1.4-3.3,3.5
	C690,73.9,691.6,75.3,693.3,75.3z M737.7,47.9l-12.2,29.9h-4l12.4-29.5h-17v-3.6h20.9V47.9z M747.9,60.5c-1.6-0.7-2.9-1.7-3.8-2.9
	c-0.9-1.3-1.3-2.8-1.3-4.7c0-1.7,0.4-3.1,1.2-4.4c0.8-1.3,2-2.4,3.5-3.2c1.6-0.8,3.5-1.2,5.7-1.2c2.2,0,4.1,0.4,5.7,1.2
	c1.6,0.8,2.8,1.8,3.6,3.2c0.8,1.3,1.2,2.8,1.2,4.4c0,1.8-0.5,3.3-1.4,4.7c-0.9,1.3-2.2,2.3-3.7,2.9c1.8,0.6,3.3,1.6,4.3,3.1
	c1.1,1.4,1.6,3.2,1.6,5.2c0,2-0.5,3.7-1.4,5.2c-0.9,1.5-2.3,2.6-4,3.4c-1.7,0.8-3.7,1.2-5.9,1.2c-2.2,0-4.2-0.4-5.9-1.2
	c-1.7-0.8-3-2-3.9-3.4c-0.9-1.5-1.4-3.2-1.4-5.2c0-2,0.5-3.8,1.6-5.3C744.7,62.1,746.1,61.1,747.9,60.5z M759.8,53.4
	c0-1.9-0.6-3.3-1.8-4.3c-1.2-1-2.8-1.5-4.8-1.5c-2,0-3.6,0.5-4.8,1.5c-1.2,1-1.8,2.5-1.8,4.4c0,1.7,0.6,3.1,1.8,4.1
	c1.2,1,2.8,1.6,4.8,1.6c2,0,3.6-0.5,4.8-1.6C759.2,56.5,759.8,55.1,759.8,53.4z M753.2,62.4c-2.2,0-3.9,0.5-5.3,1.6
	c-1.4,1-2.1,2.6-2.1,4.7c0,2,0.7,3.5,2,4.7c1.4,1.2,3.2,1.8,5.4,1.8c2.3,0,4-0.6,5.4-1.8c1.3-1.2,2-2.8,2-4.7c0-2-0.7-3.6-2-4.7
	C757.2,62.9,755.4,62.4,753.2,62.4z M804.8,43h-31v3.3h31V43z M798.2,77.2c-1.7,0-2.1-0.3-2.1-1.9V59.1h12.4v-3.3H770v3.3h11.1
	c-0.7,8.6-2.3,15.7-11.7,19.4c0.7,0.6,1.7,1.8,2.1,2.7c10.1-4.3,12.2-12.3,13.1-22.1h8.2v16.3c0,3.9,1.1,5.1,5,5.1h6.3
	c3.8,0,4.7-2.2,5.1-10c-0.9-0.3-2.3-0.9-3-1.5c-0.2,7-0.5,8.2-2.2,8.2H798.2z M829.5,34.6l-12.1,51h-4l12-51H829.5z M852.4,46.9
	h-14.2v2.2h31.9v-2.2h-14.5v-2.4h17.7v-2.4h-17.7v-2.7h-3.2v2.7H835v2.4h17.4V46.9z M872.4,66.1v-6.5h-36.6v6.5h2.9V62h30.6v4.1
	H872.4z M865,55.7h-21.8V53H865V55.7z M840.2,51v6.6h28V51H840.2z M859.5,66.1l-0.9,0.8c1.2,0.5,2.5,1.1,3.8,1.7
	c-4.9,0-9.8,0-14.2,0c0.8-0.8,1.6-1.7,2.4-2.6H859.5z M855.6,77.7v-2.4h13.8V73h-13.8v-2.3c3.4,0,6.9-0.1,10.3-0.2
	c1.1,0.7,2.1,1.4,2.9,2l1.9-1.8c-1.9-1.4-5.1-3.3-8.1-4.6h5.4V64h-27.9v2.1h6.7c-0.7,0.9-1.5,1.7-2.2,2.5c-2.4,0-4.5,0-6.4,0
	l0.2,2.3c3.9,0,8.8,0,14-0.1V73h-13.2v2.2h13.2v2.4H835v2.5h38.4v-2.5H855.6z M918.1,55.8h-30.9V47c9.2-0.8,19.6-2.3,26.5-4.4
	l-2.9-2.8c-5.5,1.8-15.4,3.3-24.3,4.2l-2.7-0.7v13.2c0,6.9-0.6,15.9-6.3,22.4c0.8,0.4,2.1,1.6,2.6,2.3c5.5-6.4,6.7-15.2,6.9-22.2
	h14.1v22.2h3.3V59.1h13.6V55.8z"/>
<path class="st3" d="M422.6,208.5l-4.2,1.3v-9h4.3v-3.1h-4.3v-9.2h-3.2v9.2h-5.9v3.1h5.9v10c-2.5,0.8-4.8,1.5-6.6,1.9l0.7,3.3
	l5.9-1.9v12.1c0,0.7-0.2,0.9-0.7,0.9c-0.6,0-2.4,0-4.4,0c0.4,0.9,0.8,2.4,1,3.3c2.9,0,4.7,0,5.8-0.6c1.1-0.6,1.5-1.6,1.5-3.5v-13.1
	l4.6-1.5L422.6,208.5z M429.4,218.4h7.2v6.4h-7.2V218.4z M436.6,206.3h-7.2v-6.1h7.2V206.3z M436.6,215.4h-7.2v-6.2h7.2V215.4z
	 M449.3,224.8h-9.7v-6.4h7.9v-3h-7.9v-6.2h7.9v-2.9h-7.9v-6.1h9V197h-8.8c1.1-2.3,2.2-5.1,3.2-7.7l-3.4-0.8c-0.7,2.5-1.8,5.9-3,8.5
	h-6.7c1.1-2.5,2-5.1,2.8-7.8l-3.1-0.8c-1.8,6.6-4.9,12.9-8.7,16.9c0.7,0.7,1.8,2.2,2.2,2.8c1.1-1.3,2.2-2.8,3.3-4.4v26.5h3.1v-2.3
	h19.9V224.8z M459.9,230.3c2.1-1.7,3.5-4.5,4.4-7l-2.4-1c-0.8,2.3-2.3,5-4.3,6.5L459.9,230.3z M467.1,222.9c0.6,2.2,1,5,0.9,6.8
	l2.7-0.5c0-1.7-0.5-4.5-1.1-6.7L467.1,222.9z M472.8,222.8c1.1,1.8,2.1,4.4,2.5,6.1l2.5-1c-0.4-1.6-1.5-4.1-2.6-5.9L472.8,222.8z
	 M478.7,222.2c1.3,1.3,2.6,3.2,3.3,4.4l2.2-1.3c-0.7-1.2-2-2.9-3.4-4.2L478.7,222.2z M476.6,203.4h-7.1v-2.5h7.1V203.4z M487,205.5
	v3.4h-7.5v-3.4H487z M469.5,205.5h7.1v3.4h-7.1V205.5z M466.7,209h-7.1v-3.4h7.1V209z M466.7,200.9v2.5h-7.1v-2.5H466.7z
	 M474.5,195.4h-3v3h-15V209c0,5.7-0.4,13.7-3.8,19.4c0.8,0.3,2.1,1.2,2.6,1.7c3.3-5.3,4-13,4.1-18.9h4.5c-0.7,3.4-1.6,7.5-2.5,10.1
	l3,0.5l0.3-0.9h23.6c-0.4,4.3-0.7,6-1.2,6.6c-0.3,0.3-0.7,0.3-1.3,0.3s-2,0-3.6-0.2c0.4,0.7,0.6,1.9,0.7,2.6c1.8,0.1,3.4,0.1,4.3,0
	c1-0.1,1.8-0.3,2.4-1c0.9-1.1,1.4-3.5,1.9-9.6c0-0.4,0.1-1.2,0.1-1.2h-26.1c0.2-0.8,0.4-1.7,0.6-2.5h25.9v-2.4h-25.3l0.5-2.3h23
	v-7.8h-10.7v-2.5h12.5v-2.5h-17.4V195.4z M482.4,191.5v-3.1h-3.3v3.1h-11.8v-3.1h-3.2v3.1h-10.2v2.8h10.2v2.9h3.2v-2.9h11.8v2.9h3.3
	v-2.9h10.3v-2.8H482.4z M512.1,208.1c-1.8,0.6-3.7,1.1-5.4,1.7v-8.9h5.2v-3.2h-5.2v-9.2h-3.2v9.2h-6.1v3.2h6.1v9.9
	c-2.5,0.7-4.8,1.4-6.6,1.9l0.9,3.3c1.7-0.6,3.7-1.1,5.7-1.8v12.2c0,0.7-0.2,0.9-0.8,0.9c-0.5,0-2.4,0-4.4,0c0.4,0.9,0.9,2.2,1,3.1
	c2.9,0,4.7,0,5.8-0.6c1.1-0.6,1.6-1.5,1.6-3.4v-13.2l5.8-1.9L512.1,208.1z M532,213.2v4.5h-14.3v-4.5H532z M517.8,225.4v-4.8H532
	v4.8H517.8z M514.7,230.3h3.1v-2.1H532v1.9h3.2v-19.8h-20.6V230.3z M521.2,203.4c-2.8,0-3.3-0.3-3.3-1.8v-3.3
	c5.7-1.1,12.1-2.7,16.6-4.5l-2.5-2.5c-3.3,1.5-8.9,3.1-14.1,4.3v-6.8h-3.2v12.9c0,3.9,1.4,5,6.4,5h10.3c4.4,0,5.4-1.6,5.9-7.5
	c-0.9-0.2-2.2-0.7-3-1.3c-0.3,5-0.7,5.7-3.1,5.7H521.2z M575.7,200.1c-0.7,5.6-1.7,10.5-3.3,14.7c-1.6-4.2-2.6-9-3.4-14.1
	c0-0.2,0.1-0.4,0.1-0.6H575.7z M559.9,211h-5.8v-3h5.8V211z M545.9,208h5.5v3h-5.5V208z M557.4,218.6c-0.7,1.9-1.7,3.4-3.1,4.7
	c-1.8-0.9-3.7-1.7-5.7-2.3c0.4-0.7,0.8-1.5,1.2-2.2L557.4,218.6z M547,201.2v-2.7h4.4v2.7H547z M551.3,193.6v2.6H547v-2.6H551.3z
	 M558.9,193.6v2.6h-4.7v-2.6H558.9z M554.2,201.2v-2.7h4.7v2.7H554.2z M581.4,200.1v-3.2h-11.5c0.6-2.6,1-5.2,1.4-7.9l-3.1-0.5
	c-1,7.4-2.6,14.7-5.4,19.6v-2.3h-8.6v-2.1h7.6v-4.9h3.1v-2.6h-3.1v-4.9h-7.6v-2.8h-2.9v2.8h-7.1v4.9h-3v2.6h3v4.9h7.1v2.1h-8.2v7.6
	h6.5c-0.4,0.9-0.9,1.9-1.5,2.9c-2.6,0-4.9,0-6.9,0l0.1,2.7l5.5-0.1c-1,1.8-1.9,3.5-2.8,4.8l2.7,0.8l0.7-1.3c1.5,0.6,3,1.2,4.4,1.9
	c-2.5,1.3-5.6,2.2-9.6,2.7c0.5,0.7,1.1,1.9,1.3,2.7c4.7-0.9,8.5-2.1,11.2-3.9c1.9,1,3.6,2,4.9,3l2.1-2.1c-1.3-0.9-2.9-1.8-4.7-2.8
	c1.6-1.6,2.7-3.6,3.4-6.1l4.6-0.1l0.1-2.6c-4.8,0.1-9.6,0.2-13.9,0.2c0.5-1,1-1.9,1.5-2.8h10.1v-3.9c0.7,0.6,1.5,1.4,1.8,1.9
	c0.9-1.5,1.7-3.2,2.5-5c0.8,4.4,2,8.6,3.4,12.2c-2.1,3.8-4.8,6.7-8.5,9c0.6,0.7,1.5,2.1,1.8,2.8c3.4-2.3,6.2-5.1,8.3-8.4
	c1.9,3.5,4.3,6.4,7.2,8.4c0.5-0.8,1.5-2.1,2.2-2.7c-3.2-2-5.7-5.1-7.6-9c2.4-5,3.9-11.1,4.9-18.5H581.4z M605.3,201.9
	c1.8,0,3.3-1.3,3.3-3.4c0-2.1-1.6-3.4-3.3-3.4s-3.3,1.3-3.3,3.4C602,200.5,603.5,201.9,605.3,201.9z M605.3,224.3
	c1.8,0,3.3-1.4,3.3-3.4c0-2.1-1.6-3.5-3.3-3.5s-3.3,1.4-3.3,3.5C602,223,603.5,224.3,605.3,224.3z"/>
<rect y="3.2" class="st4" width="319.2" height="258"/>
<path class="st3" d="M419.5,119.3c-1.4-1.6-4.3-3.6-6.7-4.9l-1.9,2.4c2.4,1.4,5.3,3.5,6.6,5L419.5,119.3z M417.8,131.1
	c-1.5-1.5-4.5-3.3-7-4.5L409,129c2.5,1.3,5.5,3.3,6.9,4.8L417.8,131.1z M412.9,155.2c1.9-4.2,4.1-9.8,5.7-14.6l-2.6-1.8
	c-1.8,5.1-4.3,11-6.1,14.5L412.9,155.2z M419.5,118.7h7.3v7.4h-6.5c-0.3,4.3-0.9,10-1.5,13.5l2.9,0.3l0.2-1.7h4.8
	c-0.3,9.7-0.7,13.3-1.4,14.2c-0.4,0.4-0.7,0.5-1.4,0.5c-0.7,0-2.4,0-4.3-0.2c0.5,0.8,0.8,2.1,0.9,3c1.8,0.1,3.7,0.1,4.8,0
	c1.1-0.1,1.9-0.5,2.6-1.3c1.1-1.4,1.5-5.7,1.8-17.7c0-0.5,0.1-1.5,0.1-1.5h-7.6c0.2-2,0.4-4.1,0.7-6.1h3.9v1.3h3v-14.8h-10.3V118.7z
	 M447.2,139.8c-1.1,1.2-2.8,2.8-4.4,4c-0.7-1.7-1.2-3.7-1.6-5.7h8v-2.9h-12.9v-3.8h10.6v-2.8h-10.6v-3.8h10.6v-2.7h-10.6v-3.8h11.9
	v-2.8h-14.9v19.6h-2.6v2.9h2.4v13.7c-1.1,0.2-2,0.4-2.9,0.6l0.8,3c3.3-0.8,7.4-1.9,11.4-2.9l-0.3-2.7c-2.1,0.5-4.1,1-6.1,1.4v-13.1
	h2.4c1.4,7.9,4.3,14.5,9.2,17.7c0.4-0.8,1.4-2.1,2.1-2.7c-2.5-1.4-4.4-3.9-5.9-6.9c1.7-1.2,3.6-2.8,5.2-4.3L447.2,139.8z
	 M481.3,109.1l-12.1,51h-4l12-51H481.3z M502.4,118.9h7.3v8h-7.3V118.9z M513.1,146l-4.8,1.3v-8.2h4.6v-3h-4.6v-6.3h4.4v-13.9h-13.2
	v13.9h5.9v18.3l-3.1,0.9v-14.9h-2.7v15.5c-0.8,0.2-1.6,0.4-2.3,0.6l0.8,3.3c4.3-1.2,9.9-2.9,15.4-4.5L513.1,146z M537.1,137.6v-3.3
	H527c0.2-1.9,0.2-3.8,0.2-5.6v-3.4h9.2v-3.2h-9.2v-7.9H524v7.9h-4.5c0.4-1.9,0.8-3.9,1.1-5.8l-3.1-0.5c-0.7,5.4-1.9,10.8-4,14.3
	c0.7,0.4,2.1,1.1,2.7,1.7c1-1.8,1.8-4,2.5-6.5h5.3v3.4c0,1.8,0,3.7-0.2,5.7h-9.9v3.3h9.5c-1,5.7-3.8,11.6-11.2,15.7
	c0.8,0.6,1.8,1.8,2.2,2.6c6.4-3.9,9.6-9,11.2-14.3c2.1,6.3,5.4,11.2,10.3,13.9c0.5-0.9,1.5-2.2,2.2-2.8c-5.4-2.6-8.8-8.3-10.7-15.2
	H537.1z M557.2,122.6h-5.9v-8.6h-2.8v8.6h-5.7v23.8h2.6v-20.8h3.2v30.2h2.8v-30.2h3.4v16.9c0,0.4-0.1,0.5-0.4,0.5
	c-0.4,0-1.1,0-2.2,0c0.4,0.8,0.8,2.1,0.8,3c1.5,0,2.5-0.1,3.3-0.6c0.8-0.6,1-1.5,1-2.8V122.6z M568.1,139.3v4.7h-6.3v-4.7H568.1z
	 M577.8,144H571v-4.7h6.8V144z M571,151.5v-4.7h6.8v4.7H571z M561.8,151.5v-4.7h6.3v4.7H561.8z M558.9,155.8h2.9v-1.5h15.9v1.4h3
	v-19.1h-21.9V155.8z M576.1,130.4h-12.4V125h12.4V130.4z M560.9,122.4V133H579v-10.6H560.9z M558.6,116.3v2.8h22.8v-2.8H558.6z
	 M605.7,127.3c1.8,0,3.3-1.3,3.3-3.4c0-2.1-1.6-3.4-3.3-3.4c-1.8,0-3.3,1.3-3.3,3.4C602.4,126,603.9,127.3,605.7,127.3z
	 M605.7,149.8c1.8,0,3.3-1.4,3.3-3.4c0-2.1-1.6-3.5-3.3-3.5c-1.8,0-3.3,1.4-3.3,3.5C602.4,148.4,603.9,149.8,605.7,149.8z
	 M654,137.3h-9.4v9.9h-3.7v-9.9h-9.3v-3.5h9.3v-10h3.7v10h9.4V137.3z M660,148.9c3.7-3.1,6.6-5.7,8.8-7.7c2.1-2,3.9-4.1,5.3-6.3
	c1.5-2.2,2.2-4.4,2.2-6.5c0-2-0.5-3.5-1.4-4.7c-0.9-1.2-2.4-1.7-4.4-1.7c-2,0-3.5,0.7-4.7,2c-1.1,1.3-1.7,3-1.8,5.2h-3.9
	c0.1-3.4,1.1-6.1,3-7.9c1.9-1.9,4.3-2.8,7.3-2.8c3,0,5.4,0.9,7.2,2.6c1.8,1.7,2.7,4.1,2.7,7.2c0,2.5-0.7,5-2.2,7.4
	c-1.4,2.4-3.1,4.5-4.9,6.3c-1.8,1.8-4.2,3.9-7.1,6.3h15.1v3.5H660V148.9z M685.8,135.4c0-5.3,0.8-9.4,2.5-12.3
	c1.6-3,4.5-4.4,8.6-4.4c4.1,0,6.9,1.5,8.6,4.4c1.6,2.9,2.5,7,2.5,12.3c0,5.4-0.8,9.5-2.5,12.5c-1.6,3-4.5,4.4-8.6,4.4
	c-4.1,0-7-1.5-8.6-4.4C686.6,144.9,685.8,140.7,685.8,135.4z M704,135.4c0-2.7-0.2-4.9-0.5-6.7c-0.3-1.9-1-3.4-2.1-4.5
	c-1-1.1-2.5-1.7-4.5-1.7c-2,0-3.5,0.6-4.6,1.7c-1,1.1-1.7,2.6-2.1,4.5c-0.3,1.8-0.5,4.1-0.5,6.7c0,2.8,0.2,5.1,0.5,6.9
	c0.4,1.9,1,3.4,2.1,4.5c1.1,1.1,2.6,1.7,4.6,1.7c2,0,3.5-0.6,4.5-1.7c1.1-1.1,1.7-2.6,2.1-4.5C703.8,140.4,704,138.1,704,135.4z
	 M712.5,126.6c0-2.1,0.6-3.7,1.8-5c1.2-1.3,2.7-1.9,4.6-1.9c1.9,0,3.4,0.6,4.6,1.9c1.2,1.2,1.8,2.9,1.8,5c0,2.1-0.6,3.8-1.8,5
	c-1.2,1.2-2.7,1.8-4.6,1.8c-1.9,0-3.4-0.6-4.6-1.8C713.2,130.4,712.5,128.7,712.5,126.6z M738.3,120.3l-17.8,32h-4l17.8-32H738.3z
	 M719,122.3c-1,0-1.8,0.4-2.4,1.1c-0.6,0.7-0.8,1.8-0.8,3.2s0.3,2.5,0.8,3.2c0.6,0.7,1.4,1.1,2.4,1.1c1,0,1.8-0.4,2.4-1.1
	c0.6-0.8,0.9-1.8,0.9-3.2c0-1.4-0.3-2.5-0.9-3.2C720.8,122.7,720,122.3,719,122.3z M729.4,146c0-2.1,0.6-3.8,1.8-5
	c1.2-1.3,2.7-1.9,4.6-1.9c1.9,0,3.4,0.6,4.6,1.9c1.2,1.2,1.8,2.9,1.8,5c0,2.1-0.6,3.7-1.8,5c-1.2,1.3-2.7,1.9-4.6,1.9
	c-1.9,0-3.4-0.6-4.6-1.8C730,149.8,729.4,148.1,729.4,146z M735.8,141.7c-1,0-1.8,0.4-2.4,1.1c-0.6,0.7-0.9,1.8-0.9,3.2
	c0,1.4,0.3,2.4,0.9,3.2c0.6,0.7,1.4,1.1,2.4,1.1c1,0,1.8-0.4,2.4-1.1c0.6-0.7,0.9-1.8,0.9-3.2c0-1.4-0.3-2.5-0.9-3.2
	C737.6,142.1,736.8,141.7,735.8,141.7z"/>
<line class="st5" x1="46.8" y1="390.2" x2="993.2" y2="390.2"/>
<path class="st1" d="M82.1,442.8c-0.8,1.4-2.4,3.5-3.6,4.9l2.1,1c1.3-1.2,2.9-3,4.3-4.8L82.1,442.8z M67.5,449.2
	c1.8-1.4,3-3.5,3.8-5.6l-2.2-0.9c-0.7,1.9-2,3.9-3.7,5.1L67.5,449.2z M62.8,442.9c-0.7,1.4-2.1,3.4-3.2,4.7l1.9,0.9
	c1.2-1.1,2.6-2.8,3.9-4.5L62.8,442.9z M50.7,442.7c-0.6,2-1.9,4-3.6,5.2l2.1,1.3c1.9-1.3,2.9-3.5,3.7-5.7L50.7,442.7z M64.1,452.6
	c-1.6-1.2-4.4-3.1-6.8-4.5c0.7-2,1.1-4.4,1.2-7.4h-2.9c-0.4,7.2-1.8,10.4-9.6,12.2c0.6,0.6,1.4,1.7,1.6,2.4c4.1-1.1,6.7-2.6,8.3-4.9
	c2.2,1.4,4.7,3.2,6.1,4.3L64.1,452.6z M78.4,478.7H54.5v-4.2h23.9V478.7z M57.4,463.3h17.4v3.6H57.4V463.3z M78,469.2V461H54.3v8.3
	h9.9c-0.2,0.9-0.5,1.9-0.7,2.8h-12v10.5h3.1v-1.2h23.9v1.2h3.3V472h-15c0.4-0.9,0.7-1.8,1.1-2.8H78z M84.9,453.3
	c-2-1.5-5.9-3.8-9-5.4c0.7-2,1.1-4.4,1.3-7.2h-3c-0.4,6.8-1.9,10-9.3,11.9c0.6,0.6,1.4,1.8,1.6,2.6c4-1.1,6.5-2.6,8.1-4.8
	c2.8,1.6,6,3.6,8,5H47.8v8.3H51v-5.5h30.2v5.5h3.2v-8.3h-1.1L84.9,453.3z M102.1,473.8h6.4c1.1,1.5,2.6,2.7,4.2,3.8
	c-3.6,0.3-7.3,0.6-10.6,0.9V473.8z M115.6,458.4c0.9,1.3,1.9,2.5,3.1,3.7h-7.2v-2.5h-3.1v2.5h-6.9c1.2-1.1,2.3-2.4,3.3-3.7H115.6z
	 M102.1,464.4H118v2.5h-15.9V464.4z M102.1,471.5v-2.6H118v2.6H102.1z M121.3,473.8v-9.5c2.2,1.7,4.6,3,7,3.9c0.4-0.9,1.4-2,2.1-2.7
	c-4.3-1.3-8.6-3.9-11.3-7h10.3v-2.7h-17.7v-2.6h12.9v-2.6h-12.9V448h15.2v-2.7h-8.4c0.9-1.1,1.8-2.5,2.7-3.8l-3.5-0.9
	c-0.6,1.3-1.8,3.3-2.6,4.7h-10.3l0.2-0.1c-0.5-1.4-1.8-3.3-3.1-4.7l-2.8,1.1c0.9,1.1,1.8,2.5,2.5,3.7h-8.4v2.7h15.2v2.6H95.6v2.6
	h12.8v2.6H90.7v2.7H101c-2.9,3.3-7.1,6-11.4,7.8c0.7,0.6,1.9,1.8,2.3,2.4c2.3-1.1,4.8-2.5,7-4.2v14.3l-5,0.4l0.4,3
	c5.1-0.5,12.3-1.1,19.2-1.9V478c3.9,2.4,8.9,3.9,14.4,4.6c0.4-0.9,1.1-2.2,1.8-2.8c-3.5-0.3-6.8-0.9-9.7-1.8c2.2-1,4.7-2.2,6.6-3.5
	l-2.4-1.5c-1.8,1.1-4.6,2.8-7,3.9c-2-0.9-3.7-1.9-5.2-3.1H121.3z M144.7,453.7h6.3v-3.2h-6.3v-9.8h-3.1v9.8h-7.1v3.2h6.7
	c-1.5,6.3-4.7,13.4-7.7,17.2c0.5,0.8,1.4,2.2,1.7,3.1c2.4-3.1,4.7-8.2,6.4-13.5v21.9h3.1v-20.9c1.7,2.2,3.7,5.1,4.5,6.6l2-2.8
	c-0.9-1.2-5-6.1-6.5-7.8V453.7z M156.1,476.3v-7.9h13.3v7.9H156.1z M169.4,446.6v7.7h-13.3v-7.7H169.4z M156.1,457.3h13.3v7.9h-13.3
	V457.3z M152.9,443.4v38.8h3.1v-2.8h13.3v2.6h3.2v-38.7H152.9z M196.6,468.8v3.7H186v-3.7H196.6z M210.8,472.4h-11.1v-3.7h11.1
	V472.4z M199.7,478.7v-3.8h11.1v3.8H199.7z M186,478.7v-3.8h10.6v3.8H186z M182.9,482.6h3.2v-1.3h24.8v1.2h3.2v-16.4h-31.2V482.6z
	 M206.5,460.9H190v-4.4h16.6V460.9z M186.9,454v9.5h22.8V454H186.9z M209,447.7c1.3-1.5,2.8-3.5,4-5.4l-3.3-1.2
	c-0.9,1.8-2.6,4.4-3.9,6.1l1.2,0.5h-7.4v-7h-3.3v7h-7.8l1.6-0.8c-0.8-1.6-2.4-3.9-3.9-5.6l-2.8,1.2c1.2,1.5,2.5,3.6,3.3,5.2h-7v9.4
	h3.1v-6.5h30.6v6.5h3.2v-9.4H209z M259,441.8h-2.9v14.3h-5.2v-2.4h4.1v-1.9h-4.1v-2.2h3.4v-1.9h-3.4v-2.1h3.8v-1.9h-3.8v-2.4h-2.2
	v2.4h-3.8v1.9h3.8v2.1h-3.4v1.9h3.4v2.2h-4v1.9h4v2.4h-5.2v-15.5h-2.9v15.5h-5.3v-2.4h4v-1.9h-4v-2.2h3.4v-1.9h-3.4v-2.1h3.8v-1.9
	h-3.8v-2.4h-2.1v2.4h-3.7v1.9h3.7v2.1H230v1.9h3.3v2.2h-3.9v1.9h3.9v2.4h-5.2v-14.3h-2.8v16.8H259V441.8z M260.9,460.9h-37.4v2.5
	h37.4V460.9z M249.2,474c-0.7,1.5-1.8,3.3-2.6,4.5l0.8,0.3h-10.7l1-0.3c-0.4-1.2-1.2-3-2.2-4.4H249.2z M231.5,467.9h21.7v3.9h-21.7
	V467.9z M249.7,478.8c0.9-1.3,1.8-2.8,2.7-4.5l-0.8-0.3h4.7v-8.4h-27.9v8.4h5l-1.1,0.3c0.9,1.3,1.8,3.1,2.2,4.4h-11.7v2.7h38.7v-2.7
	H249.7z M284.4,468.7v3.6h-10.2v-3.6H284.4z M298.2,472.3h-10.7v-3.6h10.7V472.3z M287.6,478.4v-3.7h10.7v3.7H287.6z M274.2,474.7
	h10.2v3.7h-10.2V474.7z M271.1,482.5h3.1v-1.5h24v1.3h3.2v-16.2h-30.4V482.5z M298.7,449.6h-25v2.5h25V449.6z M277,457.3h18.5v3.9
	H277V457.3z M298.6,463.6v-8.8H274v8.8H298.6z M287.7,443.7v-3h-3.3v3h-16.6v8.6h3.1v-5.7h30.4v5.7h3.2v-8.6H287.7z M315.1,483.9
	c4.6-1.7,7.6-5.5,7.6-10.4c0-3.2-1.3-5.3-3.7-5.3c-1.8,0-3.3,1.1-3.3,3.3c0,2.2,1.5,3.3,3.3,3.3c0.3,0,0.5,0,0.7,0
	c-0.2,3.1-2.2,5.3-5.5,6.7L315.1,483.9z M384.7,477.8h-20.8v-8.2h20.8V477.8z M384.8,456.6l-0.6,0.2h-24.3v3h22.5
	c-1.1,2.1-2.6,4.6-3.8,6.7h-17.9v16.1h3.2v-1.8h20.8v1.8h3.3v-16.1h-5.6c1.7-2.8,3.5-6.1,4.9-9L384.8,456.6z M366.3,450.1
	c3.1-2.2,5.9-4.5,7.7-6.7c2.1,2.3,5,4.6,8.2,6.7H366.3z M372.3,440.6c-3.6,4.7-11,9.8-18.4,12.6c0.7,0.7,1.5,1.9,1.8,2.7
	c3.5-1.5,7-3.4,10.1-5.5v2.6h17v-2.5c3.2,2.1,6.6,3.8,9.8,5c0.5-0.9,1.3-2.1,2-2.8c-6.8-2.3-14.4-6.8-19.3-12.2H372.3z M429.1,462.8
	h-18.4v-4.6h18.4V462.8z M410.7,470.6v-4.8h18.4v4.8H410.7z M437.4,449.8v-3.2H415c0.7-1.7,1.2-3.4,1.7-5.1l-3.3-0.8
	c-0.5,2-1.2,3.9-1.9,5.9h-12.4v3.2h11c-2.8,6.1-6.8,11.6-12.1,15.3c0.7,0.6,1.7,1.9,2.1,2.6c2.8-2,5.2-4.5,7.3-7.2v22.1h3.2v-9h18.4
	v4.8c0,0.7-0.3,0.9-1,1c-0.8,0-3.4,0-6.3-0.1c0.4,1,0.9,2.3,1.1,3.3c3.7,0,6.2,0,7.7-0.6c1.4-0.6,1.8-1.6,1.8-3.6v-23.2h-21.2
	c1-1.7,1.8-3.5,2.7-5.3H437.4z M481.5,457.3v-3.5h-18.2c0.6-4.8,0.7-9.4,0.7-13h-3.5c0,3.6,0,8.2-0.7,13h-16.8v3.5h16.2
	c-1.8,8.7-6.2,17.5-17.1,22.4c0.9,0.7,2,1.9,2.5,2.8c10.7-5.1,15.5-13.9,17.6-22.7c3.5,10.4,9.1,18.5,17.5,22.7
	c0.6-1,1.7-2.4,2.5-3.2c-8.5-3.6-14.2-11.9-17.3-22H481.5z M517.1,446.7h-21.8v-2.5h21.8V446.7z M517.1,451.2h-21.8v-2.5h21.8V451.2
	z M520.3,442.1h-28.1v11.1h28.1V442.1z M525.9,455.1h-39.2v2.6h39.2V455.1z M494.4,469.1v-2.6h10.2v2.6H494.4z M494.4,461.9h10.2
	v2.6h-10.2V461.9z M518.4,464.5h-10.7v-2.6h10.7V464.5z M518.4,469.1h-10.7v-2.6h10.7V469.1z M507.7,478.8v-2.7h14.8v-2.4h-14.8
	v-2.5h13.9v-11.4h-30.2v11.4h13.3v2.5h-14.5v2.4h14.5v2.7h-18.2v2.7h39.7v-2.7H507.7z M532.3,466.7c-0.5,4-1.3,8.1-2.7,10.9
	c0.6,0.2,1.9,0.8,2.4,1.2c1.4-2.9,2.4-7.3,3-11.6L532.3,466.7z M541.5,467.3c1.1,2.8,2.1,6.4,2.3,8.9l2.6-0.8
	c-0.3-2.4-1.3-6-2.5-8.8L541.5,467.3z M540.2,456.3c0.7,1.2,1.4,2.5,2,3.9l-6.3,0.3c3-3.9,6.3-9.1,8.8-13.3l-2.7-1.3
	c-1.2,2.5-2.9,5.5-4.7,8.3c-0.7-0.9-1.5-1.9-2.4-2.9c1.7-2.6,3.6-6.3,5.1-9.4l-2.9-1.1c-0.9,2.5-2.5,6-3.9,8.6
	c-0.4-0.5-0.9-0.9-1.3-1.3l-1.8,2.2c2,2,4.2,4.6,5.5,6.6c-0.9,1.4-1.8,2.7-2.7,3.8l-3,0.1l0.3,3.1l6.9-0.5v19.1h2.9v-19.3l3.5-0.2
	c0.4,1.1,0.7,2.1,0.9,2.9l2.6-1.2c-0.7-2.5-2.4-6.5-4.3-9.4L540.2,456.3z M552.1,470.9h6.5v6.3h-6.5V470.9z M558.6,458.9h-6.5v-6
	h6.5V458.9z M558.6,467.9h-6.5v-6.1h6.5V467.9z M570.5,477.2h-8.9v-6.3h7v-3h-7v-6.1h6.8v-3h-6.8v-6h8.1v-3h-7.8
	c1.2-2.3,2.5-5.1,3.6-7.6l-3.4-0.9c-0.7,2.5-2.1,6-3.3,8.5h-6.6c1.4-2.8,2.6-5.6,3.5-8.3l-3.1-0.9c-1.5,5.4-4.8,12.1-8.5,16.3
	c0.6,0.6,1.6,1.7,2.1,2.3c1-1.2,2-2.5,2.9-3.9v27.3h3v-2.3h18.4V477.2z M596,477.8v-11.6h14.1v-3.3H596v-10h15.8v-3.3H596v-8.8h-3.3
	v8.8h-8.9c1-2.3,1.8-4.8,2.5-7.3l-3.3-0.7c-1.7,6.5-4.5,12.8-8.1,16.9c0.9,0.5,2.3,1.5,3,2c1.6-2.1,3.2-4.6,4.6-7.5h10.3v10h-13.1
	v3.3h13.1v11.6h-17.8v3.3h39v-3.3H596z M629.2,473c-2.7,2.5-6.9,4.9-10.8,6.5c0.7,0.5,1.9,1.7,2.5,2.3c3.7-1.8,8.3-4.7,11.3-7.6
	L629.2,473z M657.9,471.7c-2.3-2.5-6.9-5.7-10.7-7.9l-2.2,1.8c1.5,0.9,3.1,2,4.7,3.1c-5.2,0.1-10.4,0.2-15.2,0.3
	c4-2.6,8.5-5.8,11.9-8.8l-2.9-1.7c-2.4,2.3-5.9,5.1-9.3,7.5c-1.1-0.8-2.3-1.6-3.7-2.4c2.2-1.6,4.7-3.8,6.9-5.8h20.2v-2.7h-17.7v-2.9
	h13.2v-2.6h-13.2v-2.9h15.8V444h-15.8v-3.4h-3.2v3.4h-15.1v2.6h15.1v2.9h-12.7v2.6h12.7v2.9h-17.5v2.7H633c-1.5,1.5-3.3,3.2-4.8,4.4
	c-1-0.5-2-1-2.9-1.5l-2.1,1.9c2.7,1.4,6,3.4,8.2,5.1c-0.6,0.5-1.3,0.8-1.9,1.2c-3.9,0-7.4,0.1-10.3,0.1l0.3,2.9
	c4.6-0.1,10.6-0.2,17.1-0.4v10.8h3.2v-10.9c4.3-0.1,8.8-0.2,13.1-0.4c1.1,0.9,1.9,1.7,2.6,2.5L657.9,471.7z M644.2,474.8
	c3.8,1.8,8.4,4.7,10.7,6.8l2.6-2c-2.4-2.1-7.2-4.9-10.8-6.6L644.2,474.8z M662.2,463c0-3.1,0.7-5.9,2-8.4c1.3-2.5,3.2-4.5,5.5-5.9
	c2.3-1.4,4.9-2.1,7.8-2.1c3.3,0,6.3,0.8,8.8,2.5c2.5,1.7,4.3,4.1,5.5,7.2H687c-0.9-1.9-2.1-3.4-3.7-4.4c-1.6-1-3.5-1.6-5.7-1.6
	c-2.1,0-4.1,0.5-5.8,1.6c-1.7,1-3,2.5-4,4.4c-1,1.9-1.5,4.1-1.5,6.7c0,2.5,0.5,4.8,1.5,6.7c1,1.9,2.3,3.4,4,4.4
	c1.7,1,3.6,1.6,5.8,1.6c2.2,0,4.1-0.5,5.7-1.5c1.6-1,2.8-2.5,3.7-4.4h4.8c-1.1,3.1-3,5.4-5.5,7.1c-2.5,1.7-5.4,2.5-8.8,2.5
	c-2.8,0-5.4-0.7-7.8-2.1c-2.3-1.4-4.2-3.3-5.5-5.8C662.9,469,662.2,466.2,662.2,463z M706.3,481.6l3-2.7c-2.7-3.3-6.7-7.5-9.9-10.2
	l-2.9,2.6C699.7,474,703.5,478,706.3,481.6z M780.3,450.3c-0.8-2-2.6-5-4.4-7.3l-2.4,1.1c1.6,2.3,3.4,5.5,4.2,7.5L780.3,450.3z
	 M770,450.9c-0.8-1.2-2.5-3.1-4-4.7c0.5-1.6,0.9-3.2,1.2-5l-2.6-0.4c-0.7,4.5-2.3,8.3-5.1,10.9c0.7,0.4,1.8,1.1,2.2,1.5
	c1.2-1.3,2.3-2.9,3.2-4.7c1.4,1.5,2.7,3.2,3.5,4.3L770,450.9z M761.6,448.4c-0.6-0.6-1.7-1.5-2.8-2.2c0.5-1.5,0.9-3.2,1.2-4.9
	l-2.6-0.4c-0.7,4.4-2.2,8.3-4.7,11c0.6,0.4,1.8,1.1,2.2,1.4c1.1-1.3,2.2-3,2.9-4.9c0.9,0.7,1.7,1.4,2.2,2L761.6,448.4z M741.9,466.7
	c-0.4,4-1,8.1-2.2,10.9c0.6,0.2,1.8,0.8,2.3,1.1c1.2-2.9,2-7.3,2.4-11.6L741.9,466.7z M751.4,462.9c0.3,1,0.6,1.9,0.7,2.7l2.5-1.1
	c-0.5-2.4-2-6.3-3.7-9.1l-2.3,0.9c0.7,1.2,1.3,2.6,1.8,3.9l-5.1,0.3c2.6-3.9,5.5-9.2,7.7-13.4l-2.6-1.1c-1,2.3-2.3,5-3.7,7.7
	c-0.6-0.9-1.3-1.8-2-2.8c1.4-2.5,2.9-6.1,4.1-9.2l-2.8-1c-0.7,2.4-1.8,5.6-3,8.2c-0.4-0.5-0.8-0.9-1.2-1.3l-1.5,2.3
	c1.8,1.9,3.7,4.4,4.9,6.5c-0.9,1.6-1.8,3-2.6,4.3l-2.7,0.1l0.3,3.1c1.8-0.1,3.8-0.3,5.9-0.4v19.1h2.7v-19.3L751.4,462.9z
	 M749.9,467.3c0.9,2.7,1.8,6.1,2.1,8.3l2.4-0.8c-0.3-2.2-1.3-5.7-2.2-8.3L749.9,467.3z M769.6,475.3l-3.9,0.5v-3.1h3.9v-2.4h-3.9
	v-3.1h3.6v-2.3h-3.6v-3h3.7v-2.3h-3.7v-3h4.6c0.2,6.3,0.6,11.7,1.3,16C771.1,473.5,770.4,474.5,769.6,475.3L769.6,475.3z
	 M760.9,456.5h2.5v19.5l-2.5,0.3V456.5z M776.5,460.6c-0.6,2.7-1.4,5.2-2.5,7.7c-0.4-3.3-0.6-7.2-0.7-11.7h7.2v-2.9h-7.3
	c-0.1-4-0.1-8.3-0.1-12.9H770c0,4.6,0.1,8.9,0.2,12.9h-17.5v2.9h5.7v3h-4v2.3h4v3h-3.9v2.3h3.9v3.1h-4.1v2.4h4.1v4
	c-2.3,0.3-4.4,0.6-6.2,0.7l0.5,2.8c4-0.5,9.2-1.2,14.4-2.1c-0.9,0.9-1.8,1.7-2.8,2.4c0.7,0.5,1.6,1.5,2.1,2.1c2.3-1.8,4.3-3.9,6-6.2
	c1.1,3.9,2.6,6.1,4.9,6.2c1.4,0,2.8-1.6,3.7-7.2c-0.5-0.4-1.6-1.3-2.1-2.1c-0.3,3.4-0.7,5.5-1.5,5.5c-1.2-0.1-2.2-2.2-2.9-5.8
	c2-3.5,3.4-7.5,4.4-11.7L776.5,460.6z M786.4,466.7c-0.5,4-1.3,8.1-2.7,10.9c0.6,0.2,1.9,0.8,2.4,1.2c1.4-2.9,2.4-7.3,3-11.6
	L786.4,466.7z M795.6,467.3c1.1,2.8,2.1,6.4,2.3,8.9l2.6-0.8c-0.3-2.4-1.3-6-2.5-8.8L795.6,467.3z M794.3,456.3
	c0.7,1.2,1.4,2.5,2,3.9l-6.3,0.3c3-3.9,6.3-9.1,8.8-13.3l-2.7-1.3c-1.2,2.5-2.9,5.5-4.7,8.3c-0.7-0.9-1.5-1.9-2.4-2.9
	c1.7-2.6,3.6-6.3,5.1-9.4l-2.9-1.1c-0.9,2.5-2.5,6-3.9,8.6c-0.4-0.5-0.9-0.9-1.3-1.3l-1.8,2.2c2,2,4.2,4.6,5.5,6.6
	c-0.9,1.4-1.8,2.7-2.7,3.8l-3,0.1l0.3,3.1l6.9-0.5v19.1h2.9v-19.3l3.5-0.2c0.4,1.1,0.7,2.1,0.9,2.9l2.6-1.2
	c-0.7-2.5-2.4-6.5-4.3-9.4L794.3,456.3z M806.2,470.9h6.5v6.3h-6.5V470.9z M812.7,458.9h-6.5v-6h6.5V458.9z M812.7,467.9h-6.5v-6.1
	h6.5V467.9z M824.6,477.2h-8.9v-6.3h7v-3h-7v-6.1h6.8v-3h-6.8v-6h8.1v-3H816c1.2-2.3,2.5-5.1,3.6-7.6l-3.4-0.9
	c-0.7,2.5-2.1,6-3.3,8.5h-6.6c1.4-2.8,2.6-5.6,3.5-8.3l-3.1-0.9c-1.5,5.4-4.8,12.1-8.5,16.3c0.6,0.6,1.6,1.7,2.1,2.3
	c1-1.2,2-2.5,2.9-3.9v27.3h3v-2.3h18.4V477.2z M839.3,473c-2.7,2.5-6.9,4.9-10.8,6.5c0.7,0.5,1.9,1.7,2.5,2.3
	c3.7-1.8,8.3-4.7,11.3-7.6L839.3,473z M868,471.7c-2.3-2.5-6.9-5.7-10.7-7.9l-2.2,1.8c1.5,0.9,3.1,2,4.7,3.1
	c-5.2,0.1-10.4,0.2-15.2,0.3c4-2.6,8.5-5.8,11.9-8.8l-2.9-1.7c-2.4,2.3-5.9,5.1-9.3,7.5c-1.1-0.8-2.3-1.6-3.7-2.4
	c2.2-1.6,4.7-3.8,6.9-5.8h20.2v-2.7h-17.7v-2.9h13.2v-2.6h-13.2v-2.9h15.8V444h-15.8v-3.4h-3.2v3.4h-15.1v2.6h15.1v2.9H834v2.6h12.7
	v2.9h-17.5v2.7h13.9c-1.5,1.5-3.3,3.2-4.8,4.4c-1-0.5-2-1-2.9-1.5l-2.1,1.9c2.7,1.4,6,3.4,8.2,5.1c-0.6,0.5-1.3,0.8-1.9,1.2
	c-3.9,0-7.4,0.1-10.3,0.1l0.3,2.9c4.6-0.1,10.6-0.2,17.1-0.4v10.8h3.2v-10.9c4.3-0.1,8.8-0.2,13.1-0.4c1.1,0.9,1.9,1.7,2.6,2.5
	L868,471.7z M854.3,474.8c3.8,1.8,8.4,4.7,10.7,6.8l2.6-2c-2.4-2.1-7.2-4.9-10.8-6.6L854.3,474.8z M882.4,481.6l3-2.7
	c-2.7-3.3-6.7-7.5-9.9-10.2l-2.9,2.6C875.8,474,879.6,478,882.4,481.6z M954.7,442.1h-2.9v6.4h-6.3v-7.8h-2.9v7.8h-6v-6.4h-2.8v9.3
	h21V442.1z M927.2,473.5h-4.8v-13.4h4.8V473.5z M930.1,476.5v-19.4h-7.4c0.8-3.3,1.5-7,2-10.7h6.9v-3h-15.1v3h5.2
	c-1,7.8-2.6,15.4-5.7,20.2c0.6,0.7,1.5,2.2,1.9,2.9c0.7-1.1,1.3-2.3,1.9-3.6v14.3h2.7v-3.8H930.1z M936.5,458h20v-2.9h-20v-2.5h-2.8
	v2.5h-2.6v2.9h2.6v2.2c0,6.4-0.5,13.9-4.8,20.1c0.8,0.4,1.9,1.3,2.5,1.8c4.6-6.7,5.2-14.8,5.2-21.9V458z M950.9,471.3
	c1.5-2.2,3.2-5.6,4.7-8.5l-2.9-1.1c-0.9,2.5-2.6,6.2-4,8.6L950.9,471.3z M938.4,472c1.8-2.2,2.7-5.9,3-9.3l-2.4-0.4
	c-0.4,3.2-1.3,6.5-2.8,8.4L938.4,472z M947.1,458.9h-2.8c-0.3,11.4-1.3,17.9-9.9,21.3c0.7,0.6,1.4,1.7,1.7,2.3
	c5.9-2.4,8.5-6.2,9.8-11.7c1.3,5,3.8,9.3,9.3,11.7c0.4-0.8,1.2-1.9,1.9-2.5c-8.5-3.5-9.7-11.1-10-19.4L947.1,458.9z M59.9,521
	l-0.5,0.1H46.6v3.4H58c-2.1,9.1-6.8,16-12.5,19.7c0.7,0.6,2.1,1.9,2.6,2.7c6.4-4.5,11.8-13,14-25L59.9,521z M81.9,516.9
	c-2.6,3.6-6.9,8.2-10.4,11.4c-1.5-3.3-2.8-6.7-3.7-10.4v-8.3h-3.4v36.9c0,0.9-0.3,1.2-1.2,1.2c-0.9,0-3.7,0-6.9-0.1
	c0.5,1,1.2,2.7,1.3,3.7c4,0,6.6-0.1,8.1-0.7c1.5-0.6,2.1-1.7,2.1-4.2v-19.7c3.5,9.4,8.8,17.1,16.4,21c0.5-1,1.7-2.4,2.5-3.1
	c-5.8-2.6-10.4-7.6-13.8-13.8c3.8-3.1,8.5-7.9,12-11.9L81.9,516.9z M101.9,510.2c-2.9,7.2-7.7,14.1-12.8,18.5c0.6,0.8,1.6,2.6,2,3.4
	c1.9-1.8,3.9-4,5.7-6.5v25.6h3.3v-30.4c1.9-3,3.6-6.3,4.9-9.5L101.9,510.2z M115.6,547.5c-2.4,0-2.9-0.6-2.9-3.1V531
	c5.5-3,11.4-6.5,15.5-10l-2.3-2.9c-3.3,3.1-8.3,6.6-13.2,9.5v-17.1h-3.3v33.8c0,5,1.4,6.4,6,6.4h9c4.5,0,5.5-2.6,6-10
	c-1-0.2-2.3-0.9-3.1-1.5c-0.3,6.6-0.7,8.3-3.1,8.3H115.6z M164.2,536.2v10.2H144v-10.2H164.2z M140.8,551.4h3.2v-1.9h20.2v1.9h3.3
	v-18.3h-26.8V551.4z M143.1,524.3v3h22.1v-3H143.1z M152.1,509.6c-3.4,5.9-10.8,12.8-18.4,16.9c0.7,0.7,1.6,1.9,2,2.7
	c7.5-4.2,14.7-10.7,18.3-16.3c4.1,5.9,11.8,12.3,18.6,16c0.6-1,1.4-2.2,2.2-2.9c-6.9-3.3-14.7-9.6-19.3-16.4H152.1z M194.5,532.8
	l-0.4-3l-5.1,1.7v-9.4h4.5v-3.3H189v-9.3h-3v9.3h-3.4c0.3-2,0.6-4.1,0.8-6.2l-2.9-0.5c-0.5,5.6-1.4,11.4-3,15.3
	c0.7,0.3,1.9,1.1,2.5,1.5c0.8-1.9,1.4-4.2,1.9-6.8h4v10.2c-3.1,1-5.9,1.8-8.1,2.4l0.9,3.3c2.2-0.7,4.7-1.5,7.3-2.3v15.7h3v-16.7
	L194.5,532.8z M200.6,517.1c0.7-2.2,1.4-4.6,1.9-7l-3-0.6c-1.5,6.9-4.1,13.5-7.7,17.6c0.7,0.5,2,1.4,2.5,2c1.9-2.3,3.6-5.4,5-8.7
	h3.8c-2,7.3-5.9,15-10.6,18.8c0.9,0.5,2,1.3,2.6,2c4.8-4.4,8.8-12.9,10.8-20.8h3.6c-2.3,11.5-7,22.8-14.3,28.2
	c1,0.5,2.1,1.3,2.7,2.1c7.3-6.1,12.1-18.3,14.4-30.3h2.1c-0.9,18.2-1.8,24.9-3.3,26.6c-0.5,0.6-0.9,0.8-1.6,0.8
	c-0.9,0-2.6,0-4.6-0.2c0.6,0.9,0.9,2.3,0.9,3.3c1.9,0.1,3.8,0.2,5,0c1.3-0.1,2.2-0.6,3-1.7c1.8-2.3,2.7-9.4,3.7-30.2
	c0-0.4,0-1.7,0-1.7H200.6z M234.3,514.7c2.7-0.6,5.3-1.3,7.4-2.1l-2.2-2.7c-3.9,1.6-10.7,3-16.6,3.8c0.4,0.8,0.7,1.9,0.9,2.7
	c2.3-0.3,4.8-0.7,7.3-1.1v7.6h-8.6v3.2h7.7c-2,5.7-5.5,12-8.8,15.5c0.6,0.8,1.5,2.2,1.8,3.1c2.8-3.2,5.7-8.3,7.8-13.7v20.2h3.2v-20
	c1.9,2.6,4.4,6,5.4,7.8l2-2.8c-1.1-1.4-5.7-7-7.4-8.9v-1.2h7.7v-3.2h-7.7V514.7z M246.7,542.2V517h9.8v25.3H246.7z M243.4,513.7
	v35.6h3.2v-3.8h9.8v3.4h3.3v-35.3H243.4z M295.6,538.2v8.2h-19.2v-8.2H295.6z M273.2,551.5h3.3v-2.1h19.2v2h3.4V535h-25.9V551.5z
	 M278.7,517.3h16.2c-2.2,2.8-5.2,5.3-8.5,7.4c-3.2-2.1-5.9-4.4-8.1-7L278.7,517.3z M297.9,514.1l-0.6,0.2h-16.2c1-1.3,1.8-2.7,2.6-4
	l-3.1-1.1c-3.1,5.6-8.4,10.8-13.9,13.9c0.7,0.6,2,1.9,2.5,2.5c2.4-1.5,4.8-3.4,7-5.6c2,2.4,4.5,4.6,7.2,6.6
	c-5.7,3.1-12.1,5.4-17.9,6.7c0.6,0.7,1.3,2.2,1.6,3.1c6.3-1.6,13.2-4.2,19.2-7.8c5.5,3.4,11.7,6.1,18.1,7.6c0.5-0.9,1.4-2.3,2.1-3.1
	c-6.1-1.2-12.1-3.5-17.2-6.4c4.4-3.1,8.1-6.7,10.7-10.9L297.9,514.1z M326.8,534.6c-0.9-1.1-4.6-5.1-6-6.3v-2.8h5.5v-3.2h-5.5v-7.8
	c2.1-0.5,4-1.1,5.6-1.8l-2.3-2.6c-3.2,1.5-9,2.8-13.9,3.7c0.4,0.8,0.8,1.9,1,2.7c2-0.3,4.3-0.7,6.4-1.1v7h-7.2v3.2h6.7
	c-1.8,5.2-4.8,11.1-7.6,14.4c0.5,0.8,1.3,2.2,1.6,3.1c2.2-2.8,4.6-7.4,6.4-12v20.3h3.2v-19.6c1.5,1.9,3.3,4.4,4,5.7L326.8,534.6z
	 M330.2,535.4v-3.7h6.2v3.7H330.2z M330.2,525.9h6.2v3.6h-6.2V525.9z M345.8,525.9v3.6h-6.3v-3.6H345.8z M345.8,535.4h-6.3v-3.7h6.3
	V535.4z M339.4,547.6V544h9.5v-2.8h-9.5V538h9.3v-14.6h-9.3v-3.1h10.2v-2.8h-10.2v-3.3c3.8-0.4,7.3-0.9,10.1-1.5l-2-2.6
	c-4.9,1.1-14,1.9-21.4,2.2c0.3,0.6,0.7,1.8,0.7,2.6c2.9-0.1,6.2-0.2,9.4-0.5v3.1h-10.9v2.8h10.9v3.1h-9.1V538h9.1v3.3h-9.6v2.8h9.6
	v3.6h-12.1v2.8h26.2v-2.8H339.4z M364.7,541.9h-4.8v-13.4h4.8V541.9z M367.4,544.8v-19.4h-7.3c0.8-3.3,1.4-6.9,1.9-10.6h6.6v-3.1
	h-14.4v3.1h4.8c-1,7.8-2.6,15.1-5.5,20c0.6,0.7,1.5,2.2,1.8,2.9c0.6-1.1,1.2-2.2,1.8-3.4v14.1h2.7v-3.8H367.4z M377.5,516.2v2.9
	h-4.7v-2.9H377.5z M386.5,519.2h-6.4v-2.9h6.4V519.2z M386.5,524.4h-6.4v-3h6.4V524.4z M389.9,535.1v2.7h-5.2v-2.7H389.9z
	 M389.9,542.6h-5.2v-2.8h5.2V542.6z M376.8,539.9h5.1v2.8h-5.1V539.9z M376.8,535.1h5.1v2.7h-5.1V535.1z M381.8,530.8v2.2h-7.7v11.7
	h18.4V533h-7.8v-2.2h9.1v-2.4h-21v-1.7v-5.2h4.7v5.2h11.8v-5.2h4.5v-2.3h-4.5v-2.9h4.9v-2.7h-10.4v-3.9h-3.1v3.9H370v13.1
	c0,6.7-0.4,15.9-4.7,22.4c0.7,0.3,1.9,1.1,2.4,1.6c3.7-5.5,4.8-13.3,5.1-19.9H381.8z M378.7,545.1c-2,1.6-5.2,3.2-8,4.2
	c0.6,0.5,1.6,1.6,2,2.1c2.8-1.2,6.3-3.4,8.6-5.3L378.7,545.1z M385,546.5c2.6,1.5,5.4,3.4,7.1,4.8l2.5-1.5c-1.9-1.4-4.9-3.4-7.7-4.8
	L385,546.5z M414.6,532.8l-0.4-3l-5.1,1.7v-9.4h4.5v-3.3h-4.5v-9.3h-3v9.3h-3.4c0.3-2,0.6-4.1,0.8-6.2l-2.9-0.5
	c-0.5,5.6-1.4,11.4-3,15.3c0.7,0.3,1.9,1.1,2.5,1.5c0.8-1.9,1.4-4.2,1.9-6.8h4v10.2c-3.1,1-5.9,1.8-8.1,2.4l0.9,3.3
	c2.2-0.7,4.7-1.5,7.3-2.3v15.7h3v-16.7L414.6,532.8z M420.8,517.1c0.7-2.2,1.4-4.6,1.9-7l-3-0.6c-1.5,6.9-4.1,13.5-7.7,17.6
	c0.7,0.5,2,1.4,2.5,2c1.9-2.3,3.6-5.4,5-8.7h3.8c-2,7.3-5.9,15-10.6,18.8c0.9,0.5,2,1.3,2.6,2c4.8-4.4,8.8-12.9,10.8-20.8h3.6
	c-2.3,11.5-7,22.8-14.3,28.2c1,0.5,2.1,1.3,2.7,2.1c7.3-6.1,12.1-18.3,14.4-30.3h2.1c-0.9,18.2-1.8,24.9-3.3,26.6
	c-0.5,0.6-0.9,0.8-1.6,0.8c-0.9,0-2.6,0-4.6-0.2c0.6,0.9,0.9,2.3,0.9,3.3c1.9,0.1,3.8,0.2,5,0c1.3-0.1,2.2-0.6,3-1.7
	c1.8-2.3,2.7-9.4,3.7-30.2c0-0.4,0-1.7,0-1.7H420.8z M453.9,518.7v5.7h2.9v-5.7h5.2V516h-13.2v-0.7v-1.7c4.1-0.4,8.8-1.1,12.1-2
	l-2.2-2.1c-2.4,0.7-6.4,1.4-10.2,1.9l-2.6-0.8v4.5c0,2.9-0.5,6.6-3.7,9.5c0.7,0.5,1.7,1.5,2.2,2.2c2.5-2.4,3.7-5.5,4.1-8.3H453.9z
	 M451.3,538.4h22.2v3.3h-22.2V538.4z M451.3,533h22.2v3.2h-22.2V533z M451.3,527.7h22.2v3.2h-22.2V527.7z M448.2,544h28.6v-18.7
	h-28.6V544z M455.6,544.5c-3.1,1.8-8.4,3.4-12.9,4.4c0.7,0.6,1.8,1.9,2.4,2.6c4.4-1.2,9.9-3.3,13.4-5.5L455.6,544.5z M465.9,546.4
	c4.8,1.7,9.6,3.6,12.3,5l3.6-1.7c-3.2-1.5-8.5-3.5-13.2-5.1L465.9,546.4z M466.7,516c0-0.4,0-0.7,0-1.1v-1.2c4.4-0.4,9.5-1,12.9-2
	l-2.2-2.2c-2.6,0.8-7,1.4-11.1,1.8l-2.5-0.6v4.1c0,2.5-0.7,5.5-4.2,7.9c0.7,0.5,1.6,1.5,2,2.2c2.6-1.8,4-4.1,4.6-6.3h6.1v5.8h2.9
	v-5.8h6.5V516H466.7z M492.8,536.6c-3.7,0-6.7,3.1-6.7,7c0,3.9,3,7,6.7,7c3.7,0,6.7-3.1,6.7-7C499.5,539.8,496.5,536.6,492.8,536.6z
	 M492.8,548.3c-2.4,0-4.4-2.1-4.4-4.7c0-2.5,2-4.6,4.4-4.6c2.5,0,4.5,2.1,4.5,4.6C497.3,546.2,495.3,548.3,492.8,548.3z
	 M565.3,529.4c3.5,0,4.5-1.5,4.9-7c-1-0.2-2.3-0.8-3-1.3c-0.2,4.5-0.5,5.3-2.2,5.3h-7c-2,0-2.3-0.3-2.3-1.7V520
	c4.2-1.3,8.9-2.9,12.4-4.6l-2.2-2.5c-2.5,1.4-6.4,3-10.2,4.3v-7.7h-3.2v15.1c0,3.8,1.1,4.8,5.3,4.8H565.3z M535.9,539.3v-4.2h9.3
	v4.2H535.9z M545.2,528.5v3.9h-9.3v-3.9H545.2z M548.4,525.7h-15.5v25.6h3V542h9.3v5.4c0,0.6-0.1,0.7-0.7,0.7c-0.6,0-2.5,0.1-4.5,0
	c0.4,0.8,0.9,2.2,1.1,3.1c2.8,0,4.7,0,5.9-0.6c1.2-0.6,1.5-1.5,1.5-3.2V525.7z M543,513.8c1,1.4,2,3.1,2.9,4.7l-9,0.4
	c1.4-2.6,2.8-5.8,4-8.6l-3.3-0.8c-0.9,2.8-2.6,6.7-4,9.6c-1.2,0-2.3,0.1-3.3,0.1l0.3,3.2c4.5-0.3,10.8-0.6,17-1
	c0.5,1,0.9,1.9,1.1,2.7l2.8-1.3c-0.9-2.8-3.4-7-5.7-10.2L543,513.8z M558.2,547.9c-2.1,0-2.5-0.3-2.5-1.8v-5.3
	c4.4-1.3,9.5-3.1,12.9-5.1l-2.2-2.6c-2.5,1.7-6.7,3.5-10.7,4.8v-7.2h-3.2v15.4c0,3.8,1.1,4.8,5.3,4.8h7.8c3.7,0,4.6-1.6,5.1-7.8
	c-0.9-0.2-2.2-0.7-2.9-1.3c-0.2,5.1-0.5,6.1-2.4,6.1H558.2z M597.9,521h9.7c-1,6.1-2.5,11.2-4.8,15.4
	C600.5,532,598.9,526.8,597.9,521L597.9,521z M614.5,521v-3.3H599c0.8-2.4,1.5-5,2-7.7l-3.4-0.6c-1.3,7.2-3.8,14-7.3,18.5v-14.5
	h-14.8v3.2h11.7v9h-11.7v14.6c0,3.9,1.1,4.9,5,4.9h6.8c3.4,0,4.3-1.5,4.7-7.2c-0.9-0.2-2.3-0.8-2.9-1.3c-0.1,4.6-0.4,5.4-2,5.4h-6.2
	c-1.8,0-2.2-0.2-2.2-1.7v-11.4h8.5v1.7h3.2V529c0.8,0.6,1.8,1.3,2.4,1.7c1.1-1.4,2.1-3.1,3.1-4.9c1.2,5.1,2.9,9.8,5,13.7
	c-3,3.9-7.1,6.9-12.6,8.9c0.6,0.7,1.6,2.2,2,3c5.3-2.2,9.4-5.2,12.5-9c2.6,3.8,5.9,6.8,10,8.8c0.5-0.9,1.6-2.2,2.3-2.9
	c-4.2-1.9-7.6-4.9-10.3-8.8c3-4.9,5-10.9,6.2-18.5H614.5z M642.8,510.7h-9.4v2h9.4V510.7z M644.2,515.8c1.4,1.1,3,2.6,4.1,3.9
	c-0.8,1-1.7,1.8-2.4,2.6h-2.5l0.3,2.6c1.7,0,3.6-0.1,5.6-0.2v10.7h2.6v-10.8c1.2,0,2.5-0.1,3.7-0.2c0.4,0.6,0.7,1.2,1,1.7l1.9-1.3
	c-0.9-1.7-2.8-4.2-4.5-6.1l-1.8,1.1c0.6,0.7,1.3,1.5,1.8,2.3l-5.2,0.1c2.4-2.4,5-5.4,7-8l-2.4-1.3c-0.9,1.4-2.2,3.1-3.6,4.8
	c-0.5-0.6-1.1-1.2-1.8-1.8c1.2-1.5,2.6-3.6,3.8-5.5l-2.4-1.1c-0.7,1.5-2,3.6-3.1,5.2c-0.3-0.2-0.6-0.5-0.9-0.7l-1.3,1.6v-0.8h-12.6
	v2.2h12.6V515.8z M653.2,527.5c1.3,2,2.6,4.8,3.1,6.5l2.1-1.1c-0.5-1.7-1.9-4.4-3.2-6.4L653.2,527.5z M645.7,526.6
	c-0.5,2.4-1.4,4.8-2.6,6.6c0.6,0.2,1.7,0.8,2.2,1.1c1.1-1.8,2.2-4.5,2.8-7.2L645.7,526.6z M642.9,518.7h-9.6v2h9.6V518.7z
	 M633.2,524.6h9.6v-2h-9.6V524.6z M618.6,522.3l0.3,2.6c1.7,0,3.5-0.1,5.5-0.2v10.7h2.6v-10.8l3.3-0.2c0.3,0.5,0.5,1,0.7,1.4
	l1.9-1.2c-0.7-1.6-2.3-3.9-3.8-5.6l-1.8,1.1c0.5,0.6,1.1,1.4,1.6,2.1l-4.9,0.1c2.2-2.3,4.6-5.2,6.5-7.7l-2.3-1.3
	c-0.8,1.3-1.9,2.9-3.1,4.4c-0.5-0.6-1.1-1.1-1.7-1.8c1.2-1.5,2.6-3.5,3.7-5.5l-2.3-1.1c-0.7,1.5-1.8,3.5-2.9,5.1
	c-0.4-0.3-0.7-0.6-1.1-0.9l-1.5,1.7c1.5,1.3,3.2,2.9,4.3,4.3c-0.8,1-1.6,1.9-2.3,2.7H618.6z M627.8,527.3c0.9,1.6,1.8,3.7,2.2,5.1
	l2.1-1c-0.4-1.3-1.3-3.4-2.2-5L627.8,527.3z M620.8,526.6c-0.5,2.4-1.3,5-2.6,6.9c0.7,0.3,1.7,0.9,2.2,1.3c1.2-1.9,2.2-4.9,2.9-7.6
	L620.8,526.6z M645.6,539.4c-1.9,1.9-4.4,3.4-7.3,4.7c-3.3-1.3-6.3-2.9-8.5-4.7H645.6z M635.5,528.6h5v3.4h-5V528.6z M656.9,539.4
	v-2.8h-24.8c0.7-0.9,1.4-1.7,2-2.7h8.9v-7.3h-9.8v6.5l-1.8-0.6c-2.5,4.1-7.3,7.6-12.2,9.6c0.7,0.6,1.8,1.8,2.3,2.3
	c2-1,4-2.2,5.9-3.6c2,1.8,4.4,3.3,7.1,4.6c-4.9,1.6-10.6,2.5-16.3,3.1c0.5,0.7,1.4,2.2,1.6,2.9c6.5-0.9,13-2.2,18.5-4.4
	c5.6,2.2,12,3.5,18.5,4.3c0.4-0.9,1.1-2.2,1.8-2.9c-5.8-0.5-11.5-1.6-16.6-3.1c3-1.6,5.6-3.6,7.6-6H656.9z M671.9,543.7v-18h3.4
	v-3.2h-3.4v-13h-2.7v34.9l-2.6,0.7v-27.7h-2.4v28.2l-2.2,0.6l0.7,3.1c3.6-1,8.3-2.3,12.9-3.6l-0.3-2.9L671.9,543.7z M679.9,546.5
	c-0.3,0-0.6-0.1-0.8-0.2c-0.2-0.3-0.2-1.1-0.2-2.6v-17.1c2-1.9,4.3-4.5,6.2-6.7l-2.1-2.2c-1.1,1.6-2.6,3.6-4.1,5.4v-13.6h-2.8v33.8
	c0,3.8,0.2,4.6,0.8,5.2c0.6,0.5,1.5,0.7,2.3,0.7h2.1c0.8,0,1.6-0.1,2.1-0.5c0.6-0.4,1-1,1.2-2.1c0.2-0.9,0.4-3.6,0.4-5.8
	c-0.9-0.2-1.8-0.8-2.4-1.4c0,2.5-0.1,4.5-0.2,5.4c0,0.9-0.2,1.3-0.4,1.5c-0.2,0.1-0.6,0.2-0.9,0.2H679.9z M688.9,539.5h4.7v6.3h-4.7
	V539.5z M693.6,527.4h-4.7v-6.1h4.7V527.4z M693.6,536.5h-4.7v-6.2h4.7V536.5z M702.5,545.9h-6.2v-6.3h5.3v-3h-5.3v-6.2h5.3v-3h-5.3
	v-6.1h5.8v-3.1h-5.6c0.9-2.2,1.9-5,2.7-7.5l-3-0.7c-0.5,2.4-1.6,5.7-2.5,8.2h-4.3c0.9-2.6,1.7-5.3,2.3-8l-2.9-0.6
	c-1.5,6.9-4,13.8-7.1,18.4c0.7,0.5,1.8,1.5,2.2,2.1c0.7-1.1,1.4-2.3,2-3.6v25h2.9v-2.4h13.6V545.9z M716.7,514.8
	c-1.4-1.6-4.3-3.6-6.7-4.9l-1.9,2.4c2.4,1.3,5.3,3.5,6.6,5L716.7,514.8z M715,526.6c-1.5-1.5-4.5-3.3-7-4.5l-1.8,2.5
	c2.5,1.3,5.5,3.3,6.9,4.8L715,526.6z M713.1,534.4c-1.8,5.1-4.3,11.1-6.1,14.5l2.9,1.8c1.9-4.2,4.1-9.8,5.7-14.6L713.1,534.4z
	 M723.2,538c0-0.4,0-0.8,0-1.1v-1.7h9.6v-2.8h-7.2v-3.5h4c0.7,0.6,1.8,1.8,2.2,2.3c0.7-1.3,1.5-2.7,2.1-4.3
	c0.6,4.2,1.6,8.7,3.3,12.9c-1.8,3.9-4.2,7-7.6,9.4c0.6-1.3,0.8-4,1.1-9.8c0-0.5,0-1.3,0-1.3H723.2z M720.4,522.6h7.7v3.7h-7.7V522.6
	z M720.4,516.6h7.7v3.6h-7.7V516.6z M741.4,521.4c-0.6,5.6-1.5,10.5-2.9,14.8c-1.6-4.6-2.6-9.7-3.1-14.3l0.1-0.5H741.4z
	 M746.6,521.4v-3.2h-10.1c0.6-2.7,1-5.4,1.4-8.3l-3.1-0.5c-0.7,6.1-1.8,12-3.8,16.5v-11.9H725c0.5-1.3,1-2.7,1.5-4.1l-3.4-0.5
	c-0.2,1.3-0.7,3.1-1.2,4.6h-4.2v14.7h4.9v3.5h-6.9v2.8h4.8v1.7c0,3.4-0.6,8.8-6.2,12.8c0.7,0.5,1.7,1.4,2.2,2
	c4.3-3.2,5.9-7.2,6.5-10.8h4.8c-0.2,4.6-0.5,6.3-0.9,6.9c-0.2,0.3-0.6,0.4-1.1,0.4c-0.5,0-2,0-3.6-0.2c0.4,0.7,0.7,1.9,0.8,2.8
	c1.6,0.1,3.3,0.1,4.1,0c1-0.1,1.7-0.4,2.2-1.1c0.1-0.1,0.2-0.2,0.2-0.4c0.7,0.6,1.8,1.6,2.2,2.2c2.9-2.2,5.2-5,7-8.2
	c1.6,3.1,3.7,5.9,6.3,8c0.5-0.8,1.5-2.1,2.1-2.7c-2.9-2.2-5.1-5.1-6.8-8.5c2.2-5.1,3.4-11.3,4.2-18.7H746.6z M761.3,541.8
	c-2.7,2.5-6.9,4.9-10.8,6.5c0.7,0.5,1.9,1.7,2.5,2.3c3.7-1.8,8.3-4.7,11.3-7.6L761.3,541.8z M790,540.5c-2.3-2.5-6.9-5.7-10.7-7.9
	l-2.2,1.8c1.5,0.9,3.1,2,4.7,3.1c-5.2,0.1-10.4,0.2-15.2,0.3c4-2.6,8.5-5.8,11.9-8.8l-2.9-1.7c-2.4,2.3-5.9,5.1-9.3,7.5
	c-1.1-0.8-2.3-1.6-3.7-2.4c2.2-1.6,4.7-3.8,6.9-5.8h20.2v-2.7h-17.7V521h13.2v-2.6h-13.2v-2.9h15.8v-2.6h-15.8v-3.4h-3.2v3.4h-15.1
	v2.6h15.1v2.9H756v2.6h12.7v2.9h-17.5v2.7h13.9c-1.5,1.5-3.3,3.2-4.8,4.4c-1-0.5-2-1-2.9-1.5l-2.1,1.9c2.7,1.4,6,3.4,8.2,5.1
	c-0.6,0.5-1.3,0.8-1.9,1.2c-3.9,0-7.4,0.1-10.3,0.1l0.3,2.9c4.6-0.1,10.6-0.2,17.1-0.4v10.8h3.2v-10.9c4.3-0.1,8.8-0.2,13.1-0.4
	c1.1,0.9,1.9,1.7,2.6,2.5L790,540.5z M776.2,543.6c3.8,1.8,8.4,4.7,10.7,6.8l2.6-2c-2.4-2.1-7.2-4.9-10.8-6.6L776.2,543.6z
	 M808.6,529.4h-9.2v-9.6h9.2V529.4z M799.3,543.5v-11h9.2v11H799.3z M803,509.4c-0.3,2.2-1.1,5.2-1.8,7.4h-4.9v33.4h3v-3.6h12.2
	v-29.8h-7.3c0.7-2,1.5-4.5,2.3-6.7L803,509.4z M833.1,516.6h-13.2c0.7-2.2,1.4-4.4,1.9-6.6l-3.1-0.8c-1.4,6.3-3.8,12.6-6.7,16.6
	c0.7,0.5,2.1,1.4,2.7,1.9c1.5-2.2,2.9-5,4.1-8H830c-0.6,18.3-1.2,25.2-2.7,26.8c-0.4,0.6-0.9,0.7-1.8,0.7c-1,0-3.7,0-6.5-0.3
	c0.6,1,1,2.3,1.1,3.3c2.5,0.1,5,0.2,6.5,0c1.5-0.1,2.5-0.6,3.5-1.8c1.8-2.2,2.3-9.3,3-30.2V516.6z M826.1,537.3
	c-1.4-2.7-4.4-7.1-6.9-10.4l-2.6,1.6c2.4,3.3,5.4,7.8,6.7,10.6L826.1,537.3z M877.4,517.8c-1.5-2.1-4.6-5.2-7.3-7.3l-2.4,1.7
	c2.6,2.2,5.7,5.5,7.1,7.5L877.4,517.8z M850.2,510c-2.9,7.2-7.7,14.2-12.7,18.6c0.6,0.8,1.5,2.5,1.9,3.3c2-1.9,4-4.2,5.9-6.7v26.1
	h3.3v-31c1.8-3,3.4-6.1,4.7-9.3L850.2,510z M878.2,524.8l-0.4-3.2l-13.2,1.7c-0.4-4-0.7-8.5-0.8-13.1h-3.3c0.2,4.8,0.5,9.3,0.8,13.6
	l-10.7,1.4l0.4,3.2l10.6-1.4c1.7,14.3,5.2,23.8,12.4,24.4c2.3,0.1,4-2.2,5-10.1c-0.7-0.3-2.1-1.1-2.7-1.8c-0.4,5.3-1.1,8-2.4,7.9
	c-4.7-0.5-7.6-8.7-9.1-20.8L878.2,524.8z M894.3,511.1h-10.1v2.8h10.1V511.1z M895.3,517.1h-13.1v2.8h13.1V517.1z M894.4,523.2H884
	v2.7h10.3V523.2z M884,532.1h10.3v-2.8H884V532.1z M891.8,545.9h-5.3v-7.7h5.3V545.9z M894.5,535.4h-10.5v15.4h2.6v-2.2h8V535.4z
	 M899.9,529.5h5.9v3.7c-2,0.4-4,0.8-5.9,1.2V529.5z M905.7,516.7v3.8h-5.9v-3.8H905.7z M905.7,526.9h-5.9v-3.8h5.9V526.9z
	 M908.5,530.4v-16.3h-4.9c0.5-1.2,1-2.7,1.5-4l-3.2-0.6c-0.3,1.3-0.7,3.2-1.1,4.7h-3.5v20.8c-0.7,0.1-1.5,0.3-2.1,0.4l0.7,2.8
	l8.1-1.8c-2.6,3.6-6,6.7-9.4,8.9c0.6,0.6,1.7,1.9,2.1,2.6c3.2-2.4,6.4-5.5,9.2-9.1v8.9c0,0.6-0.2,0.9-0.8,0.9c-0.6,0-2.5,0-4.6,0
	c0.4,0.8,0.9,2.1,1.1,2.9c2.8,0,4.5-0.1,5.6-0.6c1.1-0.6,1.5-1.5,1.5-3.2v-12.9c0.7-1.2,1.4-2.5,2-3.7L908.5,530.4z M915.5,538.8
	c-0.3-3-1.3-7.6-2.6-11.1l-2.4,0.6c1.3,3.5,2.2,8.2,2.4,11.1L915.5,538.8z M922.7,520.7h-2.5v-10.9h-3v10.9h-7.8v3.2h7.8v23.5
	c0,0.7-0.3,0.9-0.8,0.9c-0.6,0-2.6,0-4.8,0c0.4,0.9,0.8,2.3,1,3.2c3,0,4.9-0.1,6-0.6c1.2-0.5,1.6-1.5,1.6-3.4v-23.5h2.5V520.7z
	 M931.4,552.7c4.6-1.7,7.6-5.5,7.6-10.4c0-3.2-1.3-5.3-3.7-5.3c-1.8,0-3.3,1.1-3.3,3.3c0,2.2,1.5,3.3,3.3,3.3c0.3,0,0.5,0,0.7,0
	c-0.2,3.1-2.2,5.3-5.5,6.7L931.4,552.7z M58.1,580.1l-0.5,0.1h-9.9v39.9h2.9v-36.8h5.8c-0.9,3.1-2.2,7.2-3.5,10.5
	c3.2,3.5,3.9,6.6,3.9,9.1c0,1.3-0.2,2.6-0.9,3.1c-0.4,0.2-0.8,0.4-1.4,0.4c-0.7,0.1-1.5,0-2.6,0c0.5,0.9,0.8,2.2,0.8,3
	c1,0,2.1,0,2.9-0.1c0.9-0.1,1.7-0.4,2.3-0.8c1.2-0.9,1.7-2.8,1.7-5.2c0-2.8-0.7-6.1-3.9-9.8c1.5-3.6,3-8.3,4.4-12.1L58.1,580.1z
	 M69.2,585h9.6c-1.3,2.4-3,4.4-5.1,6.2c-2-1.7-3.6-3.7-4.8-5.8L69.2,585z M80.9,582l-0.6,0.2h-9.2c0.7-1.1,1.4-2.3,1.9-3.4l-3.2-0.6
	c-1.7,3.7-5,8-9.8,11.2c0.7,0.5,1.7,1.5,2.2,2.2c1.8-1.3,3.3-2.7,4.8-4.1c1.2,2,2.6,3.9,4.4,5.5c-3.4,2.4-7.4,4-11.3,5
	c0.6,0.7,1.3,1.9,1.7,2.8c4.2-1.2,8.4-3.1,12-5.7c3.1,2.3,6.8,4,11,5c0.4-0.8,1.3-2.1,1.9-2.8c-4-0.8-7.5-2.2-10.6-4.2
	c2.9-2.7,5.3-6,6.8-10L80.9,582z M68.3,610.3v-6.2h5.9v6.2H68.3z M77.3,604.1h7v-2.8h-7v-3.7h-3.2v3.7H62.2v2.8h3.1v6.2h-5.3v2.9h14
	v6.9h3.2v-6.9h8.3v-2.9h-8.3V604.1z M99.8,578.4c-2.5,7-6.6,13.8-10.9,18.2c0.6,0.7,1.5,2.5,1.8,3.3c1.5-1.7,3-3.5,4.4-5.6V620h3.1
	v-30.7c1.8-3.2,3.3-6.5,4.5-9.9L99.8,578.4z M102.5,618.9h18.7v-3h-18.7V618.9z M107.3,594.2v-7.8c2.9-0.4,5.9-0.8,8.8-1.3
	c0,3.1,0.2,6.2,0.5,9.1H107.3z M130.1,597.3v-3.1h-10.3c-0.3-3.1-0.4-6.3-0.5-9.7c3.2-0.6,6.2-1.4,8.7-2.2l-2.6-2.6
	c-4.4,1.6-12.2,3-19.2,3.9l-2.2-0.7v26.7l-2.9,0.5l0.7,3.2c4.4-0.8,10.2-2,15.7-3.1l-0.1-3c-3.5,0.7-7,1.3-10.2,1.9v-11.7h9.6
	c1.5,12.1,4.7,21,9.6,21c2.8,0,3.9-1.7,4.4-7.9c-0.8-0.3-1.9-1.1-2.6-1.8c-0.2,4.4-0.6,6.3-1.5,6.3c-2.7,0-5.3-7.2-6.6-17.7H130.1z
	 M153.1,578.4c-4.5,1.5-12.6,2.6-19.3,3.1c0.4,0.8,0.8,2.1,0.9,2.8c6.7-0.5,15.1-1.4,20.3-3.1L153.1,578.4z M146.2,591.1
	c-0.1-1.8-0.6-4.5-1.2-6.6l-2.7,0.4c0.6,2.2,1,5,1.1,6.7L146.2,591.1z M139.5,591.9c-0.3-1.7-1.1-4.4-2.1-6.5l-2.6,0.7
	c0.9,2.1,1.7,4.8,1.9,6.6L139.5,591.9z M152.8,584c-1.1,2.6-2.9,6.3-4.4,8.5l2.5,1.1c1.5-2.1,3.5-5.5,5-8.3L152.8,584z M146.6,602.3
	c2.8-1.9,5.9-4.6,8.2-7.2l-2.1-1.7l-0.7,0.2h-16.2v3.1h13.3c-1.4,1.4-2.9,2.8-4.4,3.9h-1.2v4c-3.7,0.3-7,0.6-9.6,0.7l0.4,3.4
	c2.6-0.2,5.8-0.5,9.2-0.8v8.3c0,0.6-0.1,0.7-0.7,0.8c-0.7,0-2.6,0-4.9,0c0.4,0.9,0.9,2.2,1.1,3.1c2.9,0,4.9,0,6.2-0.5
	c1.3-0.6,1.6-1.5,1.6-3.3v-8.7c3.1-0.3,6.3-0.6,9.5-0.9v-3.2c-3.2,0.3-6.4,0.6-9.5,0.8V602.3z M163.2,616.3c-1.8,0-2.2-0.5-2.2-2.9
	v-34.3h-3.3v34.3c0,4.8,1.1,6.1,5.1,6.1h6.5c3.9,0,4.8-2.7,5.1-10.5c-0.9-0.2-2.2-0.9-3-1.6c-0.2,7.1-0.5,8.9-2.3,8.9H163.2z
	 M183.5,595.2c-0.3-2.3-1.5-5.9-2.9-8.8l-2.5,1c1.3,2.9,2.4,6.6,2.7,9L183.5,595.2z M191.8,600.7h7.3v4h-7.3V600.7z M189.3,607.1
	h12.4v-8.8h-12.4V607.1z M208.7,594.1h-11.1v-3.9h11.1V594.1z M211.6,587.8h-16.8v8.7h16.8V587.8z M213.2,615.6h-8.8v-7.4h-3.1v7.4
	h-8.6v-6.1h-3v10.6h3v-1.6h20.5v1.6h3.1v-10.6h-3.1V615.6z M206.9,600.7h7.5v4h-7.5V600.7z M204.4,607.1h12.7v-8.8h-12.7V607.1z
	 M202,582.5v-4.2h-3.4v4.2h-14.4v14.7c0,1.1,0,2.2,0,3.4c-2.6,1.4-4.9,2.8-6.6,3.5l1.1,3c1.7-1,3.5-2.1,5.3-3.3
	c-0.5,4.9-1.8,10-5.2,13.9c0.7,0.5,1.8,1.7,2.3,2.3c5.4-6.3,6.3-16,6.3-23v-11.7h30.3v-2.9H202z M235.3,603.9v-7h5v7H235.3z
	 M248.2,596.9v7h-5v-7H248.2z M246.5,608.6c0.8,1.2,1.6,2.5,2.4,3.9l-5.7,0.4v-6.3h7.8v-12.4h-7.8v-4.4c3.3-0.4,6.3-1,8.7-1.7
	l-2.3-2.5c-4.2,1.2-11.8,2.1-18.2,2.6c0.4,0.7,0.7,1.8,0.9,2.5c2.6-0.1,5.3-0.3,8-0.6v4.1h-7.6v12.4h7.6v6.5
	c-4,0.2-7.5,0.5-10.3,0.6l0.2,3.1c5.2-0.4,12.7-1,20-1.5c0.6,1.3,1.1,2.5,1.3,3.5l2.7-1c-0.7-2.8-2.9-7-5.2-10L246.5,608.6z
	 M227,580.8v14.7c0,7-0.5,16.3-5.2,22.8c0.7,0.4,2.1,1.3,2.6,1.9c5-6.9,5.7-17.3,5.7-24.8v-11.6h23.8c0.1,20,0.1,36.2,5.5,36.2
	c2.2,0,2.9-2.3,3.2-8.2c-0.6-0.6-1.5-1.5-2-2.4c-0.1,4-0.3,7.1-0.9,7.1c-2.6,0-2.7-18.8-2.6-35.8H227z M286.1,588.5
	c2.5-2.2,4.6-4.7,6-7c1.6,2.4,3.9,4.9,6.4,7H286.1z M285.7,591.2h13.1v-2.4c1.9,1.7,4,3.1,6,4.2c0.5-0.9,1.2-2.2,1.8-3
	c-4.8-2.3-9.9-6.8-13.1-11.6h-3.1c-2.4,4.4-7.4,9.3-12.5,12c0.6,0.7,1.3,2,1.7,2.8c2.2-1.2,4.2-2.7,6.1-4.4V591.2z M296.2,597.1h4.8
	v6.1h-4.8V597.1z M293.7,605.7h10v-11h-10V605.7z M283.8,597.1h4.6v6.1h-4.6V597.1z M281.4,605.7h9.7v-11h-9.7V605.7z M277.6,580.1
	l-0.4,0.1h-9.4v39.9h2.9v-36.8h5.3c-0.9,3.1-2.1,7.2-3.2,10.5c2.9,3.5,3.6,6.6,3.6,9.1c0,1.3-0.2,2.7-0.8,3.2
	c-0.4,0.2-0.8,0.3-1.4,0.3c-0.6,0.1-1.4,0-2.2,0c0.4,0.9,0.7,2.2,0.8,3c0.9,0,1.9,0,2.7-0.1c0.8-0.1,1.6-0.4,2.2-0.8
	c1.1-0.8,1.7-2.8,1.6-5.2c0-2.8-0.7-6.1-3.6-9.9c1.4-3.7,2.9-8.3,4-12.1L277.6,580.1z M285,606.8c-1.2,4.8-3.9,8.8-7.4,11.2
	c0.7,0.6,1.8,1.6,2.2,2.2c2.2-1.7,4.2-4,5.7-6.8c1.5,1.3,2.9,2.9,3.7,4l2-2c-0.9-1.3-2.8-3.1-4.5-4.5c0.5-1.1,0.9-2.3,1.2-3.6
	L285,606.8z M297,606.7c-1,4.9-3.2,8.7-6.6,11.1c0.7,0.5,1.8,1.7,2.2,2.2c2.1-1.6,3.8-3.7,5.2-6.2c2.4,2.1,4.9,4.5,6.3,6.2l2.1-2.2
	c-1.5-1.9-4.6-4.6-7.2-6.7c0.4-1.2,0.8-2.6,1.1-4L297,606.7z M315.1,621.5c4.6-1.7,7.6-5.5,7.6-10.4c0-3.2-1.3-5.3-3.7-5.3
	c-1.8,0-3.3,1.1-3.3,3.3c0,2.2,1.5,3.3,3.3,3.3c0.3,0,0.5,0,0.7,0c-0.2,3.1-2.2,5.3-5.5,6.7L315.1,621.5z M366,602.2h16.3v5H366
	V602.2z M382.3,586.8v4.5H366v-4.5H382.3z M366,594.3h16.3v5H366V594.3z M393.6,607.2h-8.1v-20.4h7v-3.2h-7v-5.2h-3.3v5.2H366v-5.2
	h-3.2v5.2H356v3.2h6.8v20.4h-8.1v3.2h38.9L393.6,607.2z M368.1,611.2c-3.1,2.2-9.1,4.8-13.8,6.3c0.7,0.7,1.7,1.9,2.2,2.6
	c4.7-1.7,10.7-4.3,14.6-6.8L368.1,611.2z M377.4,613.5c5.1,2,10.3,4.5,13.4,6.4l2.9-2.3c-3.4-1.9-9-4.4-14.1-6.3L377.4,613.5z
	 M417.9,580.8h-18.8v3.1h18.8V580.8z M413.6,591.8v8h-9.9v-8H413.6z M416.8,602.9v-14.2h-16.2V601c0,5.2-0.3,12.2-3.3,17.1
	c0.7,0.4,2,1.5,2.5,2.1c3-4.8,3.8-11.7,3.9-17.3H416.8z M438.5,593.7h-15.6v-7.3c5.2-1.3,10.8-3,14.7-5l-2.9-2.5
	c-2.9,1.7-7.8,3.4-12.5,4.6l-2.6-0.7v12.2c0,6.9-0.6,16.1-6.7,22.8c0.8,0.4,1.9,1.6,2.4,2.3c5.9-6.6,7.3-15.8,7.4-23h7.6v23.1h3.3
	V597h4.8V593.7z M472.7,615.3h-20.8v-8.2h20.8V615.3z M472.9,594.2l-0.6,0.2H448v3h22.5c-1.1,2.1-2.6,4.6-3.8,6.7h-17.9v16.1h3.2
	v-1.8h20.8v1.8h3.3v-16.1h-5.6c1.7-2.8,3.5-6.1,4.9-9L472.9,594.2z M454.3,587.7c3.1-2.2,5.9-4.5,7.7-6.7c2.1,2.3,5,4.6,8.2,6.7
	H454.3z M460.3,578.2c-3.6,4.7-11,9.8-18.4,12.6c0.7,0.7,1.5,1.9,1.8,2.7c3.5-1.5,7-3.4,10.1-5.5v2.6h17v-2.5c3.2,2.1,6.6,3.8,9.8,5
	c0.5-0.9,1.3-2.1,2-2.8c-6.8-2.3-14.4-6.8-19.3-12.2H460.3z M517.1,600.4h-18.4v-4.6h18.4V600.4z M498.8,608.1v-4.8h18.4v4.8H498.8z
	 M525.5,587.4v-3.2h-22.4c0.7-1.7,1.2-3.4,1.7-5.1l-3.3-0.8c-0.5,2-1.2,3.9-1.9,5.9h-12.4v3.2h11c-2.8,6.1-6.8,11.6-12.1,15.3
	c0.7,0.6,1.7,1.9,2.1,2.6c2.8-2,5.2-4.5,7.3-7.2v22.1h3.2v-9h18.4v4.8c0,0.7-0.3,0.9-1,1c-0.8,0-3.4,0-6.3-0.1
	c0.4,1,0.9,2.3,1.1,3.3c3.7,0,6.2,0,7.7-0.6c1.4-0.6,1.8-1.6,1.8-3.6v-23.2h-21.2c1-1.7,1.8-3.5,2.7-5.3H525.5z M544.5,598.2h-9.2
	v-9.6h9.2V598.2z M535.2,612.3v-11h9.2v11H535.2z M538.9,578.1c-0.3,2.2-1.1,5.2-1.8,7.4h-4.9V619h3v-3.6h12.2v-29.8h-7.3
	c0.7-2,1.5-4.5,2.3-6.7L538.9,578.1z M569,585.4h-13.2c0.7-2.2,1.4-4.4,1.9-6.6l-3.1-0.8c-1.4,6.3-3.8,12.6-6.7,16.6
	c0.7,0.5,2.1,1.4,2.7,1.9c1.5-2.2,2.9-5,4.1-8h11.2c-0.6,18.3-1.2,25.2-2.7,26.8c-0.4,0.6-0.9,0.7-1.8,0.7c-1,0-3.7,0-6.5-0.3
	c0.6,1,1,2.3,1.1,3.3c2.5,0.1,5,0.2,6.5,0c1.5-0.1,2.5-0.6,3.5-1.8c1.8-2.2,2.3-9.3,3-30.2V585.4z M562,606.1
	c-1.4-2.7-4.4-7.1-6.9-10.4l-2.6,1.6c2.4,3.3,5.4,7.8,6.7,10.6L562,606.1z M588,612.3c-2.8,1.9-8.4,4.1-12.9,5.3
	c0.7,0.7,1.6,1.9,2.1,2.6c4.6-1.2,10.2-3.5,13.8-5.8L588,612.3z M597.9,614.6c5,1.7,10,3.9,13.1,5.6l2.7-2.5
	c-3.3-1.7-8.7-3.9-13.7-5.5L597.9,614.6z M588.6,603.5H600v5.2h-11.4V603.5z M588.6,596.2H600v4.3h-11.4V596.2z M582.2,589.4h10.3
	v4.1h-10.3V589.4z M582.2,582.7h10.3v4.1h-10.3V582.7z M606.3,586.8h-10.7v-4.1h10.7V586.8z M606.3,593.5h-10.7v-4.1h10.7V593.5z
	 M603.3,608.7v-5.2h8v-3h-8v-4.3h6.3v-16.1h-30.6v16.1h6.3v4.3h-7.7v3h7.7v5.2h-10.5v3h39.1v-3H603.3z M629.7,610.7h-5.3v-13.4h5.3
	V610.7z M632.6,613.6v-19.4h-8c0.8-3.3,1.5-6.7,2-10.4h7v2.9h7.4c-1,2.4-2.4,5.3-3.7,7.4l-3.6,0.1l0.4,3c5.2-0.3,12.9-0.7,20.4-1.2
	c0.7,0.9,1.3,1.8,1.7,2.5l2.5-1.7c-1.5-2.6-4.9-6.3-7.9-8.9l-2.3,1.5c1.3,1.2,2.6,2.6,3.9,3.9c-4.1,0.2-8.2,0.4-11.8,0.6
	c1.4-2.2,2.8-4.9,4-7.3h13.7v-2.9H647v-5.5h-3.2v5.5h-9.9v-3.1h-15.5v3.1h5.1c-1,7.8-2.7,15.1-5.8,19.9c0.6,0.7,1.6,2.3,2,3
	c0.7-1.1,1.3-2.2,1.9-3.5v14.2h2.8v-3.9H632.6z M636.9,605.1c0,4.2-0.6,9.2-6,12.8c0.7,0.5,1.7,1.6,2.1,2.2c6-4.1,6.7-9.8,6.7-14.9
	v-5.6h-2.8V605.1z M643.9,617.8h2.8v-18h-2.8V617.8z M654.5,616.5c-0.3,0-0.5-0.1-0.7-0.2c-0.1-0.1-0.2-0.5-0.2-0.7v-16h-2.8v15.8
	c0,2.1,0.1,2.8,0.7,3.3c0.6,0.6,1.4,0.8,2.2,0.8h1.8c0.7,0,1.4-0.1,1.9-0.5c0.5-0.4,0.9-1,1.1-1.8c0.1-0.9,0.3-3.3,0.4-5.4
	c-0.7-0.3-1.7-0.8-2.2-1.3c0,2.2,0,4-0.1,4.7c0,0.5-0.2,0.9-0.4,1.1c-0.1,0.2-0.5,0.2-0.8,0.2H654.5z M699.8,584.2v-2.5h-26.7
	c0.6-0.9,1.2-1.8,1.7-2.8l-2.7-0.9c-2.1,4-5.7,7.8-9.3,10.3c0.7,0.5,1.8,1.5,2.3,2.1c2.2-1.7,4.4-3.9,6.3-6.3H699.8z M696.7,588.8
	v-2.4h-25.4v2.4H696.7z M670.1,614.2v-1.8H685v1.8H670.1z M685,609v1.7h-14.9V609H685z M685,607.1l-17.9,0v12.8h3v-4H685v1.1
	c0,0.6-0.2,0.7-0.7,0.7c-0.5,0-2.4,0-4.5,0c0.3,0.6,0.8,1.4,1,2.1c2.8,0,4.6,0,5.8-0.3c1.2-0.4,1.5-1,1.5-2.5v-10H685z M679.1,601.8
	h9.7V600h-9.7v-1.6h10.7v-1.8h-10.7v-2.2h-3.2v2.2h-11.1v1.8h11.1v1.6h-9.7v1.8h9.7v1.7h-12.3v2h27.6v-2h-12.1V601.8z M665.4,591.2
	v2.6h27c0.1,15.7,1.1,26.4,6.3,26.4c2.5,0,3.4-1.6,3.8-7.3c-0.7-0.3-1.7-0.8-2.4-1.5c-0.1,4.2-0.5,5.7-1.2,5.7
	c-2.8,0-3.7-9.8-3.5-26H665.4z M736.6,589v5.6c0,2.8,0.7,3.6,3.5,3.6h3.5c2.1,0,2.9-1,3.2-5c-0.8-0.2-2-0.6-2.5-1.1
	c-0.1,3.1-0.3,3.4-1.1,3.4h-2.8c-0.8,0-1-0.1-1-0.9v-5.8l3.7-0.3c0.6,0.8,1.1,1.6,1.4,2.2l2.4-1.5c-1.2-2.2-4-5.5-6.4-7.8l-2.3,1.3
	c1,0.9,1.9,2,2.9,3.2l-9.7,0.5c1.2-2.2,2.6-4.8,3.7-7.2l-3.2-1.1c-0.8,2.5-2.3,5.8-3.7,8.3l-3.7,0.1l0.2,3l5.3-0.3
	c-0.4,3.9-1.7,6.5-5.9,7.9c0.6,0.6,1.4,1.7,1.7,2.4c5.1-2,6.6-5.4,7.1-10.5L736.6,589z M732.3,604.3h8.1c-1.1,2.5-2.6,4.6-4.5,6.4
	c-1.6-1.7-3-3.8-4-6L732.3,604.3z M709.8,614v-4.6h11.6v4.6H709.8z M712.5,591.8v3.4c0,2.2-0.4,5-2.7,7.2v-10.6H712.5z M714.3,583.2
	h2.6v5.6h-2.6V583.2z M721.5,599.5c-0.1,0-0.2,0-0.6,0h-1.6c-0.5,0-0.5,0-0.5-0.6v-7.2h2.8V599.5z M714.4,591.8h2.4v7.2
	c0,2.2,0.5,2.6,2.2,2.6h2.2h0.3v5.1h-11.6v-3.9c0.4,0.3,0.9,0.8,1.1,1.1c2.8-2.5,3.4-6,3.4-8.8V591.8z M742.4,601.6l-0.6,0h-7.7
	c0.7-1.1,1.3-2.3,1.8-3.6l-3-0.8c-1.7,4.4-5,8.3-8.7,10.8v-19.2h-4.8v-5.6h5.1v-2.9h-17.5v2.9h5.2v5.6h-4.7v31h2.6v-3.2h11.6v2.6
	h2.6v-10.5c0.7,0.6,1.4,1.4,1.8,1.8c1.4-1,2.8-2.2,4.1-3.6c1,2.1,2.2,3.9,3.7,5.6c-2.8,2.2-6.2,3.8-9.6,4.7c0.6,0.6,1.3,1.9,1.6,2.6
	c3.6-1.1,7-2.8,10-5.2c2.6,2.4,5.8,4.2,9.4,5.3c0.4-0.8,1.3-2.1,2-2.8c-3.5-0.9-6.6-2.5-9.1-4.6c2.7-2.7,4.9-6.1,6.3-10.4
	L742.4,601.6z M760.1,582.8v3.7H755v-3.7H760.1z M765.5,593.2H755V589h10.5V593.2z M760.1,599.6H755v-3.8h5.1V599.6z M755,602.3
	h14.4v-2.8h-6.8v-3.8h5.5v-9.3h-5.5v-3.7h6.6V580h-16.9v24.5h2.7V602.3z M758.5,608.8h5.9v7.2h-5.9V608.8z M773.4,608.8v7.2h-6v-7.2
	H773.4z M782.3,608.8v7.2h-5.9v-7.2H782.3z M785.6,606.2h-30.1v9.8h-5v2.8h39.8V616h-4.7V606.2z M774.9,594.5
	c1.2,0.6,2.6,1.5,3.8,2.3c-1.3,1.2-2.6,2.3-4,3.3c0.4,0.3,1.1,0.9,1.4,1.2c1.4-1,2.8-2.2,4.1-3.5c1.5,1.1,2.9,2.2,3.7,3.1l1.1-1.3
	c-0.9-0.9-2.2-2-3.7-3c1.1-1.2,2.1-2.5,2.9-3.8l-1.7-0.5c-0.7,1.1-1.6,2.2-2.6,3.3c-1.3-0.8-2.6-1.6-3.9-2.2L774.9,594.5z
	 M778.6,590h-7c1.3-1.9,2.4-4,3.3-6.1h3.7V590z M786.4,596.8c-0.5-0.6-1.5-1.2-2.2-1.7l-1.1,1c0.9,0.6,1.8,1.3,2.4,1.9l0.9-0.9v4.5
	h-4.6l0.4-0.4c-0.4-0.6-1.4-1.5-2.2-2l-1.2,0.8c0.6,0.5,1.2,1.1,1.7,1.6h-7v-5c0.8,0.5,1.7,1.2,2.2,1.8l1.1-1.2
	c-0.5-0.5-1.5-1.3-2.4-1.7l-0.9,0.8V592h4.4l-0.5,0.6c0.8,0.4,1.9,1.1,2.4,1.7l1.1-1.2c-0.4-0.3-0.9-0.7-1.5-1.1h7V596.8z
	 M775.8,581.6c0.4-1,0.7-2,1-2.9l-2.8-0.4c-0.9,3.3-2.6,7.6-5.2,10.9c0.7,0.4,1.7,1.1,2.2,1.7l0.3-0.4v13.1h17.7V590h-7.6v-2h7.3v-2
	h-7.3v-2h9.2v-2.3H775.8z M799.3,621.5c4.6-1.7,7.6-5.5,7.6-10.4c0-3.2-1.3-5.3-3.7-5.3c-1.8,0-3.3,1.1-3.3,3.3
	c0,2.2,1.5,3.3,3.3,3.3c0.3,0,0.5,0,0.7,0c-0.2,3.1-2.2,5.3-5.5,6.7L799.3,621.5z M858.1,594.9v10.5h-11.5v-10.5H858.1z
	 M861.4,608.6v-17h-17.9v20.7h3.2v-3.7H861.4z M878,581.5h-39v3.4h30.2v30.3c0,1-0.3,1.3-1.3,1.3c-1,0-4.6,0.1-8.1-0.1
	c0.5,1,1.2,2.7,1.4,3.6c4.3,0,7.4,0,9.1-0.6c1.7-0.5,2.2-1.7,2.2-4.2v-30.4h5.4V581.5z M894.5,580.1l-0.5,0.1h-9.9v39.9h2.9v-36.8
	h5.8c-0.9,3.1-2.2,7.2-3.5,10.5c3.2,3.5,3.9,6.6,3.9,9.1c0,1.3-0.2,2.6-0.9,3.1c-0.4,0.2-0.8,0.4-1.4,0.4c-0.7,0.1-1.5,0-2.6,0
	c0.5,0.9,0.8,2.2,0.8,3c1,0,2.1,0,2.9-0.1s1.7-0.4,2.3-0.8c1.2-0.9,1.7-2.8,1.7-5.2c0-2.8-0.7-6.1-3.9-9.8c1.5-3.6,3-8.3,4.4-12.1
	L894.5,580.1z M905.6,585h9.6c-1.3,2.4-3,4.4-5.1,6.2c-2-1.7-3.6-3.7-4.8-5.8L905.6,585z M917.3,582l-0.6,0.2h-9.2
	c0.7-1.1,1.4-2.3,1.9-3.4l-3.2-0.6c-1.7,3.7-5,8-9.8,11.2c0.7,0.5,1.7,1.5,2.2,2.2c1.8-1.3,3.3-2.7,4.8-4.1c1.2,2,2.6,3.9,4.4,5.5
	c-3.4,2.4-7.4,4-11.3,5c0.6,0.7,1.3,1.9,1.7,2.8c4.2-1.2,8.4-3.1,12-5.7c3.1,2.3,6.8,4,11,5c0.4-0.8,1.3-2.1,1.9-2.8
	c-4-0.8-7.5-2.2-10.6-4.2c2.9-2.7,5.3-6,6.8-10L917.3,582z M904.7,610.3v-6.2h5.9v6.2H904.7z M913.7,604.1h7v-2.8h-7v-3.7h-3.2v3.7
	h-11.9v2.8h3.1v6.2h-5.3v2.9h14v6.9h3.2v-6.9h8.3v-2.9h-8.3V604.1z M936.2,578.4c-2.5,7-6.6,13.8-10.9,18.2c0.6,0.7,1.5,2.5,1.8,3.3
	c1.5-1.7,3-3.5,4.4-5.6V620h3.1v-30.7c1.8-3.2,3.3-6.5,4.5-9.9L936.2,578.4z M938.9,618.9h18.7v-3h-18.7V618.9z M943.7,594.2v-7.8
	c2.9-0.4,5.9-0.8,8.8-1.3c0,3.1,0.2,6.2,0.5,9.1H943.7z M966.5,597.3v-3.1h-10.3c-0.3-3.1-0.4-6.3-0.5-9.7c3.2-0.6,6.2-1.4,8.7-2.2
	l-2.6-2.6c-4.4,1.6-12.2,3-19.2,3.9l-2.2-0.7v26.7l-2.9,0.5l0.7,3.2c4.4-0.8,10.2-2,15.7-3.1l-0.1-3c-3.5,0.7-7,1.3-10.2,1.9v-11.7
	h9.6c1.5,12.1,4.7,21,9.6,21c2.8,0,3.9-1.7,4.4-7.9c-0.8-0.3-1.9-1.1-2.6-1.8c-0.2,4.4-0.6,6.3-1.5,6.3c-2.7,0-5.3-7.2-6.6-17.7
	H966.5z M66.3,679.5c-2.9,0.6-6,1.1-8.8,1.6v-6.8h7.6v-3.1h-7.6v-5.3h-3.1v5.3h-7.1v3.1h7.1v7.3c-3.2,0.6-6.1,1-8.5,1.4l0.5,3.4
	c5.3-1,12.9-2.3,20-3.7L66.3,679.5z M71.2,658.7h8.6c-0.9,5.9-2.3,10.9-4.4,15c-2-4.2-3.4-9.2-4.4-14.5L71.2,658.7z M85.9,658.7
	v-3.2H72.2c0.7-2.5,1.3-5.2,1.8-7.9l-3.3-0.6c-1.1,6.1-2.7,12.1-5.1,16.6c-1.1-2.3-3.1-5.6-4.9-8.1l-2.5,1.3
	c0.9,1.3,1.9,2.8,2.8,4.4c-3.1,0.2-6.1,0.5-8.8,0.6c1.2-2.6,2.6-5.9,3.7-8.8h10V650H46.2v3.1h5.9c-0.8,2.9-2.1,6.4-3.3,9
	c-1.1,0.1-2.2,0.1-3.1,0.2l0.4,3.2c4.4-0.4,10.3-0.9,16.2-1.5c0.3,0.7,0.6,1.4,0.8,1.9l1.7-1c-0.4,0.7-0.9,1.4-1.3,2
	c0.8,0.5,2.2,1.6,2.8,2.2c1-1.4,1.9-3.1,2.8-4.9c1.1,4.7,2.5,9,4.4,12.8c-2.6,3.8-6.2,6.7-10.9,8.9c0.6,0.6,1.6,2.2,1.9,3
	c4.5-2.2,8-5.1,10.8-8.7c2.4,3.7,5.3,6.6,9,8.7c0.5-0.9,1.5-2.2,2.3-2.9c-3.8-1.9-6.9-5-9.3-8.9c2.9-4.9,4.8-11,5.9-18.5H85.9z
	 M95.4,663.9c-0.3-2.3-1.5-5.9-2.9-8.8l-2.5,1c1.3,2.9,2.4,6.6,2.7,9L95.4,663.9z M103.8,669.5h7.3v4h-7.3V669.5z M101.2,675.9h12.4
	v-8.8h-12.4V675.9z M120.7,662.9h-11.1v-3.9h11.1V662.9z M123.6,656.6h-16.8v8.7h16.8V656.6z M125.2,684.4h-8.8v-7.4h-3.1v7.4h-8.6
	v-6.1h-3v10.6h3v-1.6h20.5v1.6h3.1v-10.6h-3.1V684.4z M118.9,669.5h7.5v4h-7.5V669.5z M116.3,675.9h12.7v-8.8h-12.7V675.9z
	 M113.9,651.2v-4.2h-3.4v4.2H96.1v14.7c0,1.1,0,2.2,0,3.4c-2.6,1.4-4.9,2.8-6.6,3.5l1.1,3c1.7-1,3.5-2.1,5.3-3.3
	c-0.5,4.9-1.8,10-5.2,13.9c0.7,0.5,1.8,1.7,2.3,2.3c5.4-6.3,6.3-16,6.3-23v-11.7h30.3v-2.9H113.9z M150.5,670.4l-0.4-3L145,669v-9.4
	h4.5v-3.3H145v-9.3h-3v9.3h-3.4c0.3-2,0.6-4.1,0.8-6.2l-2.9-0.5c-0.5,5.6-1.4,11.4-3,15.3c0.7,0.3,1.9,1.1,2.5,1.5
	c0.8-1.9,1.4-4.2,1.9-6.8h4v10.2c-3.1,1-5.9,1.8-8.1,2.4l0.9,3.3c2.2-0.7,4.7-1.5,7.3-2.3v15.7h3v-16.7L150.5,670.4z M156.6,654.7
	c0.7-2.2,1.4-4.6,1.9-7l-3-0.6c-1.5,6.9-4.1,13.5-7.7,17.6c0.7,0.5,2,1.4,2.5,2c1.9-2.3,3.6-5.4,5-8.7h3.8c-2,7.3-5.9,15-10.6,18.8
	c0.9,0.5,2,1.3,2.6,2c4.8-4.4,8.8-12.9,10.8-20.8h3.6c-2.3,11.5-7,22.8-14.3,28.2c1,0.5,2.1,1.3,2.7,2.1
	c7.3-6.1,12.1-18.3,14.4-30.3h2.1c-0.9,18.2-1.8,24.9-3.3,26.6c-0.5,0.6-0.9,0.8-1.6,0.8c-0.9,0-2.6,0-4.6-0.2
	c0.6,0.9,0.9,2.3,0.9,3.3c1.9,0.1,3.8,0.2,5,0c1.3-0.1,2.2-0.6,3-1.7c1.8-2.3,2.7-9.4,3.7-30.2c0-0.4,0-1.7,0-1.7H156.6z M192.3,667
	H183v-9.6h9.2V667z M183,681.1v-11h9.2v11H183z M186.7,646.9c-0.3,2.2-1.1,5.2-1.8,7.4H180v33.4h3v-3.6h12.2v-29.8H188
	c0.7-2,1.5-4.5,2.3-6.7L186.7,646.9z M216.8,654.2h-13.2c0.7-2.2,1.4-4.4,1.9-6.6l-3.1-0.8c-1.4,6.3-3.8,12.6-6.7,16.6
	c0.7,0.5,2.1,1.4,2.7,1.9c1.5-2.2,2.9-5,4.1-8h11.2c-0.6,18.3-1.2,25.2-2.7,26.8c-0.4,0.6-0.9,0.7-1.8,0.7c-1,0-3.7,0-6.5-0.3
	c0.6,1,1,2.3,1.1,3.3c2.5,0.1,5,0.2,6.5,0c1.5-0.1,2.5-0.6,3.5-1.8c1.8-2.2,2.3-9.3,3-30.2V654.2z M209.8,674.9
	c-1.4-2.7-4.4-7.1-6.9-10.4l-2.6,1.6c2.4,3.3,5.4,7.8,6.7,10.6L209.8,674.9z M261,662.4h-17.4V659H257v-2.5h-13.4v-3.1h16.1v-2.6
	h-16.1V647h-3.2v3.8h-15.3v2.6h15.3v3.1h-12.8v2.5h12.8v3.4h-17.1v2.7H261V662.4z M242,680.9c0.2-1.2,0.5-2.7,0.7-4.2h9.3
	c-0.1,1.7-0.3,3-0.4,4.2H242z M239.8,676.7c-0.3,1.5-0.5,2.9-0.7,4.2h-8.8c0.3-1.3,0.6-2.8,0.9-4.2H239.8z M240.7,670
	c-0.1,1.3-0.3,2.6-0.5,4h-8.5c0.3-1.3,0.5-2.7,0.8-4H240.7z M243.1,674c0.2-1.3,0.4-2.7,0.5-4h8.9c-0.1,1.5-0.2,2.8-0.3,4H243.1z
	 M262.2,676.7V674h-6.7c0.1-1.6,0.2-3.3,0.3-5.1c0-0.5,0-1.4,0-1.4h-25.9c-0.4,2-0.8,4.3-1.3,6.6h-6.5v2.7h5.9
	c-0.7,3.4-1.5,6.7-2.2,9.2l3.2,0.2c0.2-0.8,0.4-1.7,0.6-2.6h21.5c-0.3,1.3-0.6,2-1,2.4c-0.4,0.4-0.8,0.5-1.8,0.5c-0.9,0-3.4,0-6-0.3
	c0.4,0.7,0.7,1.8,0.8,2.5c2.6,0.2,5.2,0.3,6.5,0.1c1.4-0.1,2.4-0.4,3.2-1.3c0.6-0.6,1.1-1.8,1.5-3.9h6.1v-2.7h-5.6
	c0.1-1.2,0.3-2.6,0.4-4.2H262.2z M268,668.3c1.1-3.3,2-8.5,2.2-12.3l-2.5-0.4c-0.3,3.7-1.1,8.7-2.3,11.7L268,668.3z M271.8,688.9
	h3.3V647h-3.3V688.9z M275.4,655.5c1.2,2.5,2.6,5.8,3,7.8l2.5-1.2c-0.5-1.9-1.9-5.2-3.2-7.7L275.4,655.5z M294.7,684.1v-11.5h9v-3.2
	h-9V660h9.9v-3.3h-9.9v-9.5h-3.3v9.5H286c0.6-2.2,1.1-4.6,1.6-7l-3.2-0.6c-1,6.2-2.8,12.4-5.3,16.4c0.8,0.4,2.2,1.1,2.9,1.6
	c1.2-2,2.2-4.4,3.1-7.1h6.4v9.5h-9.3v3.2h9.3v11.5h-12.6v3.3h26.9v-3.3H294.7z M315.1,690.3c4.6-1.7,7.6-5.5,7.6-10.4
	c0-3.2-1.3-5.3-3.7-5.3c-1.8,0-3.3,1.1-3.3,3.3s1.5,3.3,3.3,3.3c0.3,0,0.5,0,0.7,0c-0.2,3.1-2.2,5.3-5.5,6.7L315.1,690.3z
	 M385.1,669.2h-18.4v-4.6h18.4V669.2z M366.7,676.9v-4.8h18.4v4.8H366.7z M393.4,656.2v-3.2H371c0.7-1.7,1.2-3.4,1.7-5.1l-3.3-0.8
	c-0.5,2-1.2,3.9-1.9,5.9h-12.4v3.2h11c-2.8,6.1-6.8,11.6-12.1,15.3c0.7,0.6,1.7,1.9,2.1,2.6c2.8-2,5.2-4.5,7.3-7.2v22.1h3.2v-9h18.4
	v4.8c0,0.7-0.3,0.9-1,1c-0.8,0-3.4,0-6.3-0.1c0.4,1,0.9,2.3,1.1,3.3c3.7,0,6.2,0,7.7-0.6c1.4-0.6,1.8-1.6,1.8-3.6v-23.2H367
	c1-1.7,1.8-3.5,2.7-5.3H393.4z M420.1,653.2h-9.5v-6h-3.2v6h-9.2v3.1h21.9V653.2z M418.7,664.8c-0.9-2-3-4.9-4.9-7l-2.5,1.4
	c1.8,2.2,3.9,5.2,4.8,7.2L418.7,664.8z M403.6,657.8c-1.3,3.3-3.4,6.6-5.7,8.9c0.7,0.5,2,1.4,2.6,2c2.3-2.5,4.7-6.3,6.2-10.1
	L403.6,657.8z M417.1,682.2c-1.2-2-3.1-4.4-5.4-6.9c1.3-2.6,2.4-5.4,3.3-8.4l-3.2-0.8c-0.7,2.3-1.5,4.6-2.4,6.7
	c-1.8-1.8-3.6-3.5-5.3-5l-2.3,2c2,1.8,4.1,3.9,6.1,6.1c-2.5,4.4-5.7,8-9.6,10.5c0.7,0.6,1.9,2,2.4,2.6c3.7-2.8,6.9-6.3,9.4-10.6
	c1.8,2.2,3.4,4.4,4.4,6.1L417.1,682.2z M424.8,658.7h7.5c-0.8,5.7-2,10.6-3.9,14.7c-1.7-4.2-2.9-9.1-3.7-14.3L424.8,658.7z
	 M438.3,658.7v-3.2h-12.7c0.7-2.6,1.2-5.2,1.7-8l-3.2-0.5c-1.2,8-3.4,15.7-6.9,20.7c0.8,0.5,2.1,1.7,2.6,2.3c1.1-1.6,2-3.4,2.9-5.5
	c1,4.5,2.2,8.7,3.8,12.3c-2.5,3.9-5.9,7-10.4,9.2c0.6,0.6,1.5,2.2,1.9,2.9c4.3-2.3,7.6-5.2,10.2-8.9c2.1,3.7,4.8,6.7,8.1,8.8
	c0.4-0.9,1.5-2.2,2.2-2.8c-3.5-2-6.3-5.1-8.5-9.1c2.7-4.9,4.4-10.9,5.4-18.3H438.3z M477.5,663.6h-12.9v-4.4h12.9V663.6z
	 M477.5,670.5h-12.9V666h12.9V670.5z M477.5,677.6h-12.9v-4.5h12.9V677.6z M461.6,656.5v23.8h19v-23.8h-9.1c0.4-1.3,0.8-2.8,1.2-4.4
	h9.4v-2.9h-22.2v2.9h9.2c-0.2,1.4-0.5,3-0.8,4.4H461.6z M457.1,674.1c1.2-2.5,2.6-6.5,3.7-10l-2-0.6l-0.5,0.1h-3.2l1.1-1.4
	c-0.8-0.9-2.1-2-3.4-3c2.5-2.4,5-5.7,6.8-8.8l-2-1.5l-0.7,0.2H443v3h11.8c-1.3,1.9-2.9,3.9-4.4,5.4c-1.5-1-3-1.9-4.4-2.7l-1.8,2.2
	c3.1,1.7,6.7,4.4,9,6.6H442v3h7.2v18.1c0,0.6-0.2,0.7-0.8,0.7c-0.6,0-2.6,0-4.8,0c0.4,0.9,0.9,2.3,1,3.2c3,0,5,0,6.2-0.6
	c1.3-0.5,1.6-1.5,1.6-3.3v-18.2h4.6c-0.7,2.5-1.6,5-2.4,6.7L457.1,674.1z M465.9,681.1c-1.9,2-5.9,4.4-9.3,5.6
	c0.6,0.6,1.7,1.7,2.2,2.3c3.5-1.3,7.6-3.8,10-6.2L465.9,681.1z M472.7,683c2.7,1.7,6,4.3,7.7,6l2.6-2c-1.8-1.7-5.2-4.2-7.8-5.8
	L472.7,683z M499.2,648.9l-0.5,0.1H488v39.9h3.1v-36.8h6.5c-1,3.2-2.4,7.6-3.7,11c3.3,3.7,4.2,6.8,4.2,9.4c0,1.4-0.2,2.7-1,3.2
	c-0.4,0.3-0.9,0.4-1.5,0.5c-0.8,0-1.7,0-2.8-0.1c0.5,0.9,0.8,2.2,0.8,3.1c1,0,2.2,0,3.2,0c0.9-0.1,1.8-0.4,2.4-0.9
	c1.3-0.9,1.8-2.9,1.8-5.4c0-2.8-0.7-6.2-4.2-10.1c1.6-3.7,3.3-8.5,4.7-12.4L499.2,648.9z M526,657.9v-3.2h-11.2V647h-3.2v7.7h-10.9
	v3.2h7.1c-0.3,12.2-1.1,22.9-10.9,28.3c0.8,0.6,1.8,1.8,2.2,2.5c7.6-4.4,10.3-11.9,11.3-20.8h9.9c-0.4,11.6-0.9,16.1-1.8,17.1
	c-0.4,0.5-0.8,0.6-1.6,0.6c-0.9,0-3.1,0-5.5-0.3c0.5,0.9,0.9,2.3,1,3.3c2.3,0.1,4.8,0.2,6,0c1.4-0.1,2.2-0.4,3-1.5
	c1.3-1.6,1.8-6.7,2.3-20.8v-1.6h-12.9c0.2-2.2,0.3-4.6,0.4-7H526z M535.7,670.4c0.1-1.9,0.1-3.7,0.1-5.3v-2.6h5.6v7.8H535.7z
	 M541.5,651.8v7.6h-5.6v-7.6H541.5z M544.5,648.7h-11.5v16.4c0,6.7-0.2,15.9-3.1,22.3c0.7,0.3,2.1,1,2.6,1.6
	c1.9-4.4,2.8-10.1,3.2-15.5h5.9v11.4c0,0.6-0.2,0.8-0.8,0.8c-0.5,0-2.2,0-4.2,0c0.4,0.8,0.8,2.3,0.9,3.2c2.9,0,4.5-0.1,5.6-0.6
	c1.1-0.6,1.5-1.6,1.5-3.4V648.7z M568.7,661.4h-9.3v-4.4h-3.1v4.4h-8.8v20.8h3v-17.7h5.8v24.4h3.1v-24.4h6.3v14
	c0,0.5-0.1,0.6-0.7,0.6c-0.5,0-2,0-3.8,0c0.4,0.9,0.9,2.4,1,3.3c2.4,0,4.1,0,5.2-0.6c1.1-0.6,1.3-1.7,1.3-3.3V661.4z M559.5,653
	v-5.4h-3.3v5.4h-10.6v3.2h24.7V653H559.5z M579.7,663.9c-0.3-2.3-1.5-5.9-2.9-8.8l-2.5,1c1.3,2.9,2.4,6.6,2.7,9L579.7,663.9z
	 M588,669.5h7.3v4H588V669.5z M585.5,675.9h12.4v-8.8h-12.4V675.9z M604.9,662.9h-11.1v-3.9h11.1V662.9z M607.8,656.6H591v8.7h16.8
	V656.6z M609.4,684.4h-8.8v-7.4h-3.1v7.4h-8.6v-6.1h-3v10.6h3v-1.6h20.5v1.6h3.1v-10.6h-3.1V684.4z M603.1,669.5h7.5v4h-7.5V669.5z
	 M600.6,675.9h12.7v-8.8h-12.7V675.9z M598.2,651.2v-4.2h-3.4v4.2h-14.4v14.7c0,1.1,0,2.2,0,3.4c-2.6,1.4-4.9,2.8-6.6,3.5l1.1,3
	c1.7-1,3.5-2.1,5.3-3.3c-0.5,4.9-1.8,10-5.2,13.9c0.7,0.5,1.8,1.7,2.3,2.3c5.4-6.3,6.3-16,6.3-23v-11.7h30.3v-2.9H598.2z
	 M630.5,652.3c2.7-0.6,5.3-1.3,7.4-2.1l-2.2-2.7c-3.9,1.6-10.7,3-16.6,3.8c0.4,0.8,0.7,1.9,0.9,2.7c2.3-0.3,4.8-0.7,7.3-1.1v7.6
	h-8.6v3.2h7.7c-2,5.7-5.5,12-8.8,15.5c0.6,0.8,1.5,2.2,1.8,3.1c2.8-3.2,5.7-8.3,7.8-13.7v20.2h3.2v-20c1.9,2.6,4.4,6,5.4,7.8l2-2.8
	c-1.1-1.4-5.7-7-7.4-8.9v-1.2h7.7v-3.2h-7.7V652.3z M642.8,679.8v-25.3h9.8v25.3H642.8z M639.6,651.3v35.6h3.2v-3.8h9.8v3.4h3.3
	v-35.3H639.6z M694.5,675.6c-2.2,1.6-4.9,3.3-7.2,4.4c-1.6-1.3-2.9-2.8-4-4.4H694.5z M673.1,668.8h18.5v4h-18.5V668.8z M673.1,662.3
	h18.5v3.9h-18.5V662.3z M683.9,659.5V655h-3.3v4.5h-9.1c4.4-3,8.2-6.4,10.7-9.5c2.7,3.3,6.9,6.6,11.2,9.5H683.9z M697.3,673.6
	c-0.7,0.6-1.5,1.2-2.4,1.8v-15c2,1.2,4,2.3,5.9,3.2c0.6-0.9,1.4-2.2,2.1-3c-6.8-2.7-14.4-7.9-19.2-13.7h-3.2
	c-3.5,5.1-10.9,10.8-18.3,14.2c0.7,0.7,1.5,2,1.9,2.8c2-1,4-2.1,5.9-3.3v24.3c-1.8,0.2-3.5,0.3-5,0.5l0.5,3.2c5-0.5,12.2-1.2,19.1-2
	l0-3l-11.3,1.1v-8.9h6.9c3.7,7.3,10.7,11.6,20.2,13.3c0.4-0.9,1.3-2.2,2-2.9c-4.8-0.7-9.1-2.1-12.5-4.2c3.3-1.7,7.1-4,10-6.2
	L697.3,673.6z M739.2,665.7h-14.6v-3.8h14.6V665.7z M739.2,672h-14.6v-3.8h14.6V672z M739.2,678.3h-14.6v-3.9h14.6V678.3z
	 M721.6,659.3V681h20.9v-21.6h-10.3c0.4-1.1,0.8-2.4,1.2-3.6h12.5v-2.8h-8c1-1.4,2.1-3.3,3-5l-3.3-0.9c-0.7,1.7-2,4.2-3.1,5.8h-7.2
	l1.1-0.5c-0.5-1.6-1.9-3.7-3.3-5.2l-2.5,1c1.1,1.4,2.2,3.3,2.8,4.7h-7.4v2.8h11.7c-0.2,1.2-0.4,2.5-0.7,3.6H721.6z M717.2,655.2
	c-1.5-2.2-4.8-5.1-7.7-7.1l-2.4,2.1c2.9,2,6.1,5,7.5,7.2L717.2,655.2z M716,665h-9.3v3.2h6.1v11.6c-2.2,1.9-4.7,3.9-6.7,5.2l1.8,3.4
	c2.3-2,4.5-3.9,6.6-5.9c2.8,3.5,6.7,5.2,12.5,5.4c4.8,0.2,13.9,0.1,18.7-0.1c0.1-1.1,0.7-2.7,1.1-3.5c-5.2,0.4-14.9,0.5-19.7,0.3
	c-5.1-0.2-8.9-1.8-11-5.1V665z M755.8,663.9c-0.3-2.3-1.5-5.9-2.9-8.8l-2.5,1c1.3,2.9,2.4,6.6,2.7,9L755.8,663.9z M764.1,669.5h7.3
	v4h-7.3V669.5z M761.6,675.9h12.4v-8.8h-12.4V675.9z M781,662.9h-11.1v-3.9H781V662.9z M783.9,656.6h-16.8v8.7h16.8V656.6z
	 M785.5,684.4h-8.8v-7.4h-3.1v7.4H765v-6.1h-3v10.6h3v-1.6h20.5v1.6h3.1v-10.6h-3.1V684.4z M779.2,669.5h7.5v4h-7.5V669.5z
	 M776.7,675.9h12.7v-8.8h-12.7V675.9z M774.2,651.2v-4.2h-3.4v4.2h-14.4v14.7c0,1.1,0,2.2,0,3.4c-2.6,1.4-4.9,2.8-6.6,3.5l1.1,3
	c1.7-1,3.5-2.1,5.3-3.3c-0.5,4.9-1.8,10-5.2,13.9c0.7,0.5,1.8,1.7,2.3,2.3c5.4-6.3,6.3-16,6.3-23v-11.7h30.3v-2.9H774.2z
	 M800.9,674.2c-3.7,0-6.7,3.1-6.7,7c0,3.9,3,7,6.7,7c3.7,0,6.7-3.1,6.7-7C807.7,677.3,804.7,674.2,800.9,674.2z M800.9,685.9
	c-2.4,0-4.4-2.1-4.4-4.7c0-2.5,2-4.6,4.4-4.6c2.5,0,4.5,2.1,4.5,4.6C805.4,683.8,803.4,685.9,800.9,685.9z"/>
<g>
	<defs>
		<rect id="SVGID_1_" x="621.8" y="186.7" width="44" height="45.9"/>
	</defs>
	<clipPath id="SVGID_2_">
		<use xlink:href="#SVGID_1_"  style="overflow:visible;"/>
	</clipPath>
	<g class="st6">
		<path class="st7" d="M665.7,204.3c-0.3-0.9-1.1-1.6-2-1.7l-12.7-1.2l-5-12.3c-0.4-0.9-1.2-1.5-2.2-1.5s-1.8,0.6-2.2,1.5l-5,12.2
			l-12.7,1.2c-0.9,0.1-1.7,0.7-2,1.7s0,1.9,0.7,2.6l9.6,8.8l-2.8,13c-0.2,1,0.1,1.9,0.9,2.5c0.4,0.3,0.9,0.5,1.4,0.5
			c0.4,0,0.8-0.1,1.2-0.3l11-6.8l11,6.8c0.8,0.5,1.8,0.5,2.6-0.1c0.8-0.6,1.1-1.6,0.9-2.5l-2.8-13l9.6-8.8
			C665.7,206.2,666,205.2,665.7,204.3z"/>
	</g>
</g>
<g>
	<defs>
		<rect id="SVGID_3_" x="671.3" y="186.7" width="44" height="45.9"/>
	</defs>
	<clipPath id="SVGID_4_">
		<use xlink:href="#SVGID_3_"  style="overflow:visible;"/>
	</clipPath>
	<g class="st8">
		<path class="st7" d="M715.2,204.3c-0.3-0.9-1.1-1.6-2-1.7l-12.7-1.2l-5-12.3c-0.4-0.9-1.2-1.5-2.2-1.5c-0.9,0-1.8,0.6-2.2,1.5
			l-5,12.2l-12.7,1.2c-0.9,0.1-1.7,0.7-2,1.7c-0.3,0.9,0,1.9,0.7,2.6l9.6,8.8l-2.8,13c-0.2,1,0.1,1.9,0.9,2.5
			c0.4,0.3,0.9,0.5,1.4,0.5c0.4,0,0.8-0.1,1.2-0.3l11-6.8l11,6.8c0.8,0.5,1.8,0.5,2.6-0.1c0.8-0.6,1.1-1.6,0.9-2.5l-2.8-13l9.6-8.8
			C715.3,206.2,715.5,205.2,715.2,204.3z"/>
	</g>
</g>
<g>
	<defs>
		<rect id="SVGID_5_" x="720.8" y="186.7" width="44" height="45.9"/>
	</defs>
	<clipPath id="SVGID_6_">
		<use xlink:href="#SVGID_5_"  style="overflow:visible;"/>
	</clipPath>
	<g class="st9">
		<path class="st7" d="M764.8,204.3c-0.3-0.9-1.1-1.6-2-1.7l-12.7-1.2l-5-12.3c-0.4-0.9-1.2-1.5-2.2-1.5c-0.9,0-1.8,0.6-2.2,1.5
			l-5,12.2l-12.7,1.2c-0.9,0.1-1.7,0.7-2,1.7c-0.3,0.9,0,1.9,0.7,2.6l9.6,8.8l-2.8,13c-0.2,1,0.1,1.9,0.9,2.5
			c0.4,0.3,0.9,0.5,1.4,0.5c0.4,0,0.8-0.1,1.2-0.3l11-6.8l11,6.8c0.8,0.5,1.8,0.5,2.6-0.1c0.8-0.6,1.1-1.6,0.9-2.5l-2.8-13l9.6-8.8
			C764.8,206.2,765,205.2,764.8,204.3z"/>
	</g>
</g>
<g>
	<defs>
		<rect id="SVGID_7_" x="770.4" y="186.7" width="44" height="45.9"/>
	</defs>
	<clipPath id="SVGID_8_">
		<use xlink:href="#SVGID_7_"  style="overflow:visible;"/>
	</clipPath>
	<g class="st10">
		<path class="st7" d="M814.3,204.3c-0.3-0.9-1.1-1.6-2-1.7l-12.7-1.2l-5-12.3c-0.4-0.9-1.2-1.5-2.2-1.5c-0.9,0-1.8,0.6-2.2,1.5
			l-5,12.2l-12.7,1.2c-0.9,0.1-1.7,0.7-2,1.7c-0.3,0.9,0,1.9,0.7,2.6l9.6,8.8l-2.8,13c-0.2,1,0.1,1.9,0.9,2.5
			c0.4,0.3,0.9,0.5,1.4,0.5c0.4,0,0.8-0.1,1.2-0.3l11-6.8l11,6.8c0.8,0.5,1.8,0.5,2.6-0.1c0.8-0.6,1.1-1.6,0.9-2.5l-2.8-13l9.6-8.8
			C814.3,206.2,814.6,205.2,814.3,204.3z"/>
	</g>
</g>
<g>
	<defs>
		<rect id="SVGID_9_" x="819.9" y="186.7" width="44" height="45.9"/>
	</defs>
	<clipPath id="SVGID_10_">
		<use xlink:href="#SVGID_9_"  style="overflow:visible;"/>
	</clipPath>
	<g class="st11">
		<path class="st7" d="M863.8,204.3c-0.3-0.9-1.1-1.6-2-1.7l-12.7-1.2l-5-12.3c-0.4-0.9-1.2-1.5-2.2-1.5c-0.9,0-1.8,0.6-2.2,1.5
			l-5,12.2l-12.7,1.2c-0.9,0.1-1.7,0.7-2,1.7c-0.3,0.9,0,1.9,0.7,2.6l9.6,8.8l-2.8,13c-0.2,1,0.1,1.9,0.9,2.5
			c0.4,0.3,0.9,0.5,1.4,0.5c0.4,0,0.8-0.1,1.2-0.3l11-6.8l11,6.8c0.8,0.5,1.8,0.5,2.6-0.1c0.8-0.6,1.1-1.6,0.9-2.5l-2.8-13l9.6-8.8
			C863.8,206.2,864.1,205.2,863.8,204.3z"/>
	</g>
</g>
<path class="st1" d="M78.3,337.3v5.8H64.8v-5.8H78.3z M81.9,346.3v-12.1H61.1v15h3.6v-2.9H81.9z M93.2,326.9H50.2v24.6h3.9v-21h34.9
	v15.9c0,0.8-0.2,1.1-1.1,1.1c-1,0.1-4.1,0.1-7.6,0c0.6,1.1,1.1,2.8,1.3,4c4.6,0,7.4,0,9.2-0.6c1.7-0.7,2.2-2,2.2-4.3V326.9z
	 M82.2,320.2H60.7v-5.6h21.5V320.2z M56.8,311.6v11.7h29.4v-11.7H56.8z M73.3,304.7v-5.4h-4.1v5.4H47.8v3.7h47.4v-3.7H73.3z
	 M150.4,301.3h-22.1v3h22.1V301.3z M148.8,317.2v-10.3h-19.3v10.4h3.6v-7.7h11.9v7.6H148.8z M135.5,312.1c1.7,1.4,3.7,3.5,4.6,5
	l2.1-2.1c-0.9-1.4-3-3.4-4.7-4.8L135.5,312.1z M125.6,301.3h-21.8v3h21.8V301.3z M124.5,317.2v-10.3h-18.9v10.4h3.5v-7.7h11.7v7.6
	H124.5z M111.5,312.1c1.5,1.5,3.4,3.6,4.2,5l2.2-2.1c-0.8-1.4-2.8-3.4-4.3-4.8L111.5,312.1z M109.4,328h9.2v4.1h-9.2
	c0.1-1.2,0.1-2.3,0.1-3.4V328z M118.6,321.9v3.1h-9.2v-3.1H118.6z M131.8,325h-9.5v-3.1h9.5V325z M144.9,328v4.1h-9.4V328H144.9z
	 M122.3,332.1V328h9.5v4.1H122.3z M137.6,347.8c-2.4,0-2.9-0.3-2.9-1.8v-3.3c5.1-0.9,10.8-2.2,14.9-3.7l-2.6-2.5
	c-2.9,1.1-7.8,2.5-12.3,3.4V335h14v-10h-13.2v-3.1h14.6v-3.2h-21.5v-3.3h-3.5v3.3h-19.5v9.8c0,6.1-0.5,14.5-4.7,20.6
	c0.8,0.5,2.5,1.8,3.1,2.6c3.2-4.7,4.6-11.1,5.1-16.8h4.1v12.2c-1.9,0.2-3.6,0.3-5.1,0.5l0.3,3.3c5.5-0.5,13.2-1.4,20.6-2.2l-0.1-3.2
	c-4.1,0.5-8.2,0.9-11.9,1.3v-4.9h11.4v-3h-11.4V335h13.8v11c0,4,1.3,4.9,6.3,4.9h9.4c3.9,0,5-1.4,5.3-7.2c-1-0.3-2.4-0.8-3.3-1.4
	c-0.2,4.6-0.6,5.4-2.5,5.4H137.6z M170.4,311.6h4.1v-4.5h14.3v3.9h4.1v-3.9h12.9v-3.8h-12.9v-4h-4.1v4h-14.3v-4h-4.1v4h-12.8v3.8
	h12.8V311.6z M198.5,310.4c-8.8,2.2-25.6,3.4-39.3,3.8c0.4,0.9,0.8,2.6,0.9,3.6c13.9-0.3,31-1.5,41.7-4.1L198.5,310.4z M183.8,325.9
	c-0.4-2.2-1.9-5.5-3.5-7.9l-3.6,1.2c1.5,2.5,2.9,5.8,3.2,8.1L183.8,325.9z M170.2,327.6c-0.8-2.5-2.9-5.9-5.1-8.4l-3.4,1.4
	c2,2.6,4.1,6.2,4.8,8.6L170.2,327.6z M198.4,317c-1.5,3.4-4.1,8.2-6.2,11.1l3.2,1.5c2.1-2.8,4.9-7.2,7.1-11L198.4,317z M205.9,335.8
	V332h-22.3v-4.4h-4.2v4.4h-22v3.8h18.3c-4.9,4.7-12.6,8.9-19.5,10.9c0.9,0.9,2.2,2.6,2.8,3.7c7.2-2.6,15.2-7.6,20.4-13.2v14.3h4.2
	v-14.4c5,5.7,13,10.5,20.5,13c0.6-1.1,1.9-2.8,2.8-3.7c-7.2-1.8-14.9-5.8-19.7-10.5H205.9z"/>
<image style="overflow:visible;" width="2465" height="1643" xlink:href="../original/Lovepik_com-401413773-cabbage.png"  transform="matrix(0.1723 0 0 0.1412 -14.4741 17.8218)">
</image>
<path class="st1" d="M863,327.6l-4.6,0.9c0.3-2,0.4-3.9,0.4-5.5v-26.4h-4v8.3h-14.1v3.9h14.1v8.8h-13.5v3.9h13.5v1.5
	c0,1.7-0.2,3.9-0.7,6.2c-5.9,1-11.4,1.9-15.5,2.5l0.9,4.2c3.8-0.7,8.5-1.6,13.4-2.6c-1.9,4.6-5.5,9.3-12.2,12.4
	c0.9,0.9,2.2,2.2,2.8,3.2c8.3-4.1,12.2-10.5,13.9-16.5l5.7-1.1L863,327.6z M888.3,330.6h-16.5v-9.1h14.4v-3.9h-14.4v-8.8h15.6V305
	h-15.6v-8.3h-4.1v51.7h4.1v-13.8h16.5V330.6z M924.7,336.8h13v-3.4h-13v-5.7H939v-3.5h-14.3v-4.6h-4v4.6h-8.5
	c0.6-1.3,1.1-2.6,1.6-3.9l-3.6-0.8c-1.5,4.2-4,8.4-6.8,11.3c0.9,0.5,2.4,1.5,3.1,2.2c1.4-1.4,2.7-3.2,3.9-5.2h10.4v5.7h-12.3v3.4
	h12.3v6.8h-17.2v3.6h38.6v-3.6h-17.4V336.8z M905.8,314.9c4.5-1,9.3-2.3,13.8-4c3.8,1.4,7.3,2.8,10,4H905.8z M926.8,304.5
	c-2,1.2-4.4,2.3-7,3.3c-3.7-1.2-7.5-2.4-11-3.3H926.8z M931.1,314.9l2-1.9c-2.5-1.1-5.7-2.4-9.3-3.7c2.8-1.3,5.5-2.7,7.5-4.2
	l-0.9-0.5h9.4V301H920v-4.7h-4v4.7h-19v3.5h10.4l-2.3,1.9c3.2,0.8,6.7,1.8,10.1,3c-4.2,1.3-8.7,2.3-12.6,3.1c0.5,0.6,1,1.7,1.4,2.4
	h-6.2v9.1c0,6.5-0.6,15.5-5,22.2c0.9,0.5,2.6,1.9,3.2,2.7c4.8-7.1,5.7-17.6,5.7-24.8v-5.6h40.8v-3.5H931.1z M974.5,332
	c4.4-1.8,9-4.5,12.3-7.3l-2.5-2.1l-0.9,0.2h-25.7v3.4H979c-2,1.3-4.3,2.4-6.5,3.4h-1.9v3.4h-21.9v3.6h21.9v7c0,0.8-0.2,1.1-1.3,1.1
	c-1,0.1-4.5,0.1-8.5-0.1c0.6,1.1,1.3,2.6,1.5,3.8c4.7,0,7.8-0.1,9.7-0.6c1.9-0.6,2.5-1.7,2.5-4v-7.1h22v-3.6h-22V332z M996.5,311.8
	v-3.5h-22.1v-6c6.2-0.6,12-1.5,16.5-2.6l-3.3-3c-7.9,1.9-23,3.2-35.3,3.6c0.4,0.9,0.8,2.4,0.9,3.4c5.5-0.2,11.4-0.5,17.3-1v5.6
	h-21.7v3.5h17.4c-4.9,4.8-12.3,9.1-19,11.2c0.8,0.9,2,2.4,2.6,3.3c7.2-2.7,15.5-8,20.7-14v8.9h3.9v-9.3c5.1,5.9,13.3,11.2,20.6,13.8
	c0.6-1,1.7-2.6,2.6-3.3c-6.6-2.1-13.9-6.1-18.7-10.7H996.5z"/>
</svg>
